<?xml version="1.0" encoding="UTF-8" standalone="no"?>
<svg width="90px" height="18px" viewBox="0 0 90 18" version="1.1" xmlns="http://www.w3.org/2000/svg" xmlns:xlink="http://www.w3.org/1999/xlink">
    <!-- Generator: Sketch 3.8.3 (29802) - http://www.bohemiancoding.com/sketch -->
    <title>Combined Shape</title>
    <desc>Created with Sketch.</desc>
    <defs></defs>
    <g id="Symbols" stroke="none" stroke-width="1" fill="none" fill-rule="evenodd">
        <g id="Main-Nav" transform="translate(-143.000000, -27.000000)" fill="#FFFFFF">
            <g id="Combined-Shape">
                <path d="M152.441452,31.9291153 L149.425045,40.9046389 L146.237111,31.9291153 L143,31.9291153 L147.732987,44.6811143 L150.994489,44.6811143 L155.604864,31.9291153 L152.441452,31.9291153 Z M157.204487,30.1635431 L160.490643,30.1635431 L160.490643,27 L157.204487,27 L157.204487,30.1635431 Z M157.302577,34.9990234 L157.302577,44.6811671 L160.416943,44.6811671 L160.416943,31.929168 L157.302577,31.929168 C157.302577,31.929168 157.302577,30.1579516 157.302577,34.9990234 Z M174.505198,39.2615609 L165.971081,39.2615609 C165.94669,40.2424636 166.290006,41.1743212 166.902938,41.7628628 C167.344476,42.1797465 167.95754,42.547585 168.791308,42.547585 C169.67412,42.547585 170.213617,42.3760589 170.655023,41.9345208 C170.924771,41.6647725 171.145474,41.3215884 171.268087,40.8555278 L174.210927,40.8555278 C174.137359,41.6157274 173.622385,42.6211527 173.131934,43.2098262 C172.052941,44.4849997 170.458842,44.9999736 168.840353,44.9999736 C167.09925,44.9999736 165.823945,44.3869094 164.81852,43.4305293 C163.543346,42.204269 162.856714,40.4141216 162.856714,38.3295714 C162.856714,36.2941983 163.469779,34.4795283 164.695907,33.2288773 C165.652287,32.2479746 167.025683,31.610256 168.766785,31.610256 C170.655023,31.610256 172.371603,32.3704556 173.426205,33.9645543 C174.358062,35.3623407 174.578766,36.8091722 174.52972,38.403271 C174.52972,38.403271 174.505198,38.9918126 174.505198,39.2615609 Z M170.679545,34.7983217 C170.262662,34.3569154 169.625075,34.0626446 168.742263,34.0626446 C167.810405,34.0626446 167.050205,34.4550057 166.608799,35.0435473 C166.167261,35.6075664 165.971081,36.1962399 165.94669,37.0300072 L171.464268,37.0300072 C171.439877,36.0734952 171.169997,35.3378182 170.679545,34.7983217 Z M192.167314,44.6811671 L192.167314,36.7601139 C192.167314,35.1906696 191.75043,34.2833345 190.205508,34.2833345 C188.464406,34.2833345 187.704075,36.1225271 187.704075,37.7166259 L187.704075,44.6811671 L184.663276,44.6811671 L184.663276,36.7601139 C184.663276,35.1906696 184.246392,34.2833345 182.701471,34.2833345 C180.960237,34.2833345 180.175514,36.1225271 180.175514,37.7166259 L180.175514,44.6811671 L177.134584,44.6811671 L177.134584,31.9290362 L179.685063,31.9290362 L179.930289,33.6212252 C180.641443,32.4441419 181.867572,31.6102428 183.559761,31.6102428 C185.349908,31.6102428 186.576168,32.3950968 187.213755,33.6947929 C187.973823,32.3704424 189.347087,31.6102428 191.063798,31.6102428 C193.785803,31.6102428 195.208244,33.4250447 195.208244,36.073482 L195.208244,44.6811671 L192.167314,44.6811671 Z M207.766317,44.8773872 C206.442098,44.8773872 205.70629,44.0436198 205.608331,43.0871079 C205.019658,44.1170557 203.548304,45 201.733633,45 C198.692703,45 197.123259,43.0871079 197.123259,41.0025577 C197.123259,38.5748235 199.011497,37.1770371 201.439363,37.005511 L205.191447,36.7356309 L205.191447,35.9509087 C205.191447,34.7493029 204.774564,33.9400581 203.03333,33.9400581 C201.611021,33.9400581 200.777253,34.5776449 200.703686,35.7547282 L197.736323,35.7547282 C197.907981,32.8855877 200.188712,31.6102823 203.03333,31.6102823 C205.21597,31.6102823 207.079685,32.2970461 207.815362,34.2098064 C208.134156,35.0190511 208.183201,35.9263862 208.183201,36.784676 L208.183201,41.5176635 C208.183201,42.1062051 208.379513,42.3269082 208.894355,42.3269082 C209.090536,42.3269082 209.286716,42.2778631 209.286716,42.2778631 L209.286716,44.5340712 C208.771742,44.7546425 208.501994,44.8773872 207.766317,44.8773872 Z M205.191447,39.0162297 L201.954337,39.2614554 C201.022479,39.3351549 200.115144,39.8990422 200.115144,40.9291219 C200.115144,41.9100246 200.973434,42.5232206 201.929814,42.5232206 C203.842706,42.5232206 205.191447,41.4931409 205.191447,39.6049032 L205.191447,39.0162297 Z M216.291008,44.8527987 C213.716138,44.8527987 212.440965,43.3814446 212.440965,40.9290559 L212.440965,34.4549661 L210.111189,34.4549661 L210.111189,31.9291416 L212.440965,31.9291416 L212.440965,28.6920308 L215.506286,27.9318312 L215.506286,31.9291416 L218.718874,31.9291416 L218.718874,34.4549661 L215.506286,34.4549661 L215.506286,40.6593077 C215.506286,41.6403423 215.947692,42.0572259 216.928595,42.0572259 C217.566313,42.0572259 218.081155,42.0325715 218.914923,41.9344812 L218.914923,44.5094827 C218.056764,44.7301858 217.198475,44.8527987 216.291008,44.8527987 Z M232.430219,39.2615609 L223.896102,39.2615609 C223.871711,40.2424636 224.214895,41.1743212 224.82796,41.7628628 C225.269366,42.1797465 225.882562,42.547585 226.716329,42.547585 C227.599142,42.547585 228.138638,42.3760589 228.580044,41.9345208 C228.849793,41.6647725 229.070496,41.3215884 229.193109,40.8555278 L232.135949,40.8555278 C232.062381,41.6157274 231.547275,42.6211527 231.056956,43.2098262 C229.977831,44.4849997 228.383864,44.9999736 226.765374,44.9999736 C225.024272,44.9999736 223.748967,44.3869094 222.743541,43.4305293 C221.468368,42.204269 220.781736,40.4141216 220.781736,38.3295714 C220.781736,36.2941983 221.394668,34.4795283 222.620929,33.2288773 C223.577309,32.2479746 224.950573,31.610256 226.691807,31.610256 C228.580044,31.610256 230.296756,32.3704556 231.351226,33.9645543 C232.283084,35.3623407 232.503787,36.8091722 232.454742,38.403271 C232.454742,38.403271 232.430219,38.9918126 232.430219,39.2615609 Z M228.604567,34.7983217 C228.187683,34.3569154 227.550097,34.0626446 226.667284,34.0626446 C225.735295,34.0626446 224.975227,34.4550057 224.533689,35.0435473 C224.092283,35.6075664 223.896102,36.1962399 223.871711,37.0300072 L229.389289,37.0300072 C229.364898,36.0734952 229.09515,35.3378182 228.604567,34.7983217 Z"></path>
            </g>
        </g>
    </g>
</svg>