<?xml version="1.0" encoding="UTF-8" standalone="no"?>
<svg width="96px" height="27px" viewBox="0 0 96 27" version="1.1" xmlns="http://www.w3.org/2000/svg" xmlns:xlink="http://www.w3.org/1999/xlink">
    <!-- Generator: Sketch 41 (35326) - http://www.bohemiancoding.com/sketch -->
    <title>Combined Shape</title>
    <desc>Created with Sketch.</desc>
    <defs></defs>
    <g id="Page-1" stroke="none" stroke-width="1" fill="none" fill-rule="evenodd">
        <path d="M18.8687799,9.88305962 C19.3987353,9.88305962 19.8529829,9.80835774 20.2315225,9.65748922 C20.6116393,9.5066207 20.9255118,9.30888042 21.174717,9.0657331 C21.4239222,8.82258578 21.6053058,8.54428463 21.7204449,8.23375914 C21.8340068,7.92176891 21.892365,7.59952548 21.892365,7.26849359 C21.892365,6.90816684 21.8213888,6.59764135 21.6810137,6.33398763 C21.5406386,6.07033391 21.3513688,5.85941094 21.1116271,5.69975396 C20.8734626,5.53863225 20.5927124,5.41852333 20.2709537,5.34089196 C19.949195,5.26326059 19.6069321,5.22371253 19.2425878,5.22371253 C18.6605831,5.22371253 18.1763679,5.30866761 17.7852103,5.48004253 C17.3956299,5.64995271 17.084912,5.85941094 16.8514792,6.10695248 C16.6164692,6.35595877 16.4477037,6.62107723 16.3436053,6.90377261 C16.2395069,7.18646798 16.1890349,7.4398685 16.1890349,7.66250942 C16.1890349,8.3348264 16.4066952,8.87385178 16.843593,9.27665607 C17.2789135,9.68092511 17.9539758,9.88305962 18.8687799,9.88305962 Z M93.6238856,19.2511157 C93.2185328,19.6099777 92.7232768,19.9893461 92.1428494,20.3906856 C91.5608447,20.7905604 90.9425634,21.1611404 90.2880053,21.5009607 C89.6334472,21.8407811 88.9615394,22.1234764 88.2707046,22.3490468 C87.5798699,22.576082 86.9237345,22.6888672 86.2991442,22.6888672 C86.1019881,22.6888672 85.9158728,22.6712903 85.7439528,22.633207 C85.5720327,22.5951236 85.4079989,22.5292102 85.2518513,22.4354667 C85.0941264,22.3402584 84.9411333,22.2084315 84.7897175,22.0385214 C84.6383017,21.8686112 84.4853086,21.6562235 84.329161,21.4013582 C85.2345015,21.1757878 86.0751749,20.8594033 86.8511811,20.4536696 C87.6271873,20.0479358 88.2959406,19.5865418 88.857441,19.066558 C89.4205187,18.5480391 89.9110429,17.9255233 90.3337455,17.1990109 C90.7548708,16.4739632 90.9646448,15.8177583 90.9646448,15.2333259 C90.9646448,14.6840474 90.8621237,14.1874995 90.6539269,13.7436824 C90.4457301,13.3013301 90.1555164,12.9219617 89.7880176,12.6099714 C89.4189414,12.2965165 88.9836209,12.0533691 88.4852104,11.8805295 C87.9852227,11.7062251 87.4458037,11.6198053 86.8622219,11.6198053 C86.1493056,11.6198053 85.5010565,11.7355199 84.9174746,11.9698788 C84.3338927,12.2027729 83.8070918,12.5176926 83.3370718,12.9131732 C82.8670517,13.3071891 82.4569672,13.7641888 82.1052408,14.2841726 C81.7535144,14.8026915 81.4617235,15.3475759 81.2282907,15.9188256 C80.9980124,16.4900753 80.7724659,17.1448154 80.5548056,17.8830458 C80.3387226,18.6212762 80.2283152,19.2555099 80.2283152,19.7886763 C80.2283152,20.0039935 80.2598602,20.2105222 80.2772099,20.4199805 C80.1052899,20.5415541 79.9444105,20.6704515 79.7661815,20.7861662 C79.3466334,21.0615379 78.9191991,21.3149384 78.4886103,21.5463677 C78.0564442,21.7777971 77.6463597,21.9784669 77.2567793,22.1469123 C76.8656217,22.3153578 76.5075863,22.4486494 76.1795187,22.5453224 C75.851451,22.6419954 75.5785871,22.6888672 75.3609268,22.6888672 C75.0060459,22.6888672 74.6858645,22.6390659 74.3988053,22.5379987 C74.1117461,22.4369314 73.8688498,22.2728802 73.6716938,22.0458451 C73.4729605,21.8188099 73.3215447,21.5273261 73.2174463,21.1699288 C73.1133479,20.8139963 73.0612987,20.3745734 73.0612987,19.853125 C73.0612987,19.6509905 73.0628759,19.4283495 73.0691849,19.1881317 C73.0739167,18.9464491 73.0818029,18.6959781 73.0928436,18.4352539 C73.1023071,18.1745296 73.1133479,17.9123407 73.1243886,17.6472222 C73.1338521,17.380639 73.1433156,17.124309 73.1543563,16.8723732 C73.1874785,16.2937998 73.222178,15.7049731 73.2631865,15.107358 C73.5234324,14.8085505 73.8089144,14.4731244 74.1164778,14.1010797 C74.4256185,13.7304997 74.7300274,13.3511313 75.0312819,12.965904 L81.0216712,12.965904 C81.2724537,12.965904 81.5011547,12.8531188 81.7093515,12.6260836 C81.9175482,12.3990485 82.0200694,12.1060999 82.0200694,11.7457731 C82.0200694,11.4337829 81.9743292,11.1759882 81.8796943,10.9723889 C81.7882139,10.7687896 81.636798,10.6603987 81.4286012,10.6501455 C81.2519494,10.641357 81.0279802,10.6311038 80.7582707,10.6208506 C80.486984,10.6120622 80.1983475,10.601809 79.8860523,10.5930205 C79.5737572,10.5827673 79.2519985,10.5739788 78.9191991,10.5666551 C78.5863997,10.5593314 78.2788363,10.550543 77.9917771,10.5432192 C77.7078724,10.5358955 77.4555126,10.5227128 77.2378523,10.5022064 C77.0186148,10.4831648 76.8624672,10.4890238 76.7694096,10.5212481 C77.1416402,9.98368746 77.4980983,9.44026785 77.8372067,8.89245402 C78.1747379,8.34610492 78.4681061,7.8056148 78.7157341,7.27244839 C78.9665165,6.73928198 79.1636726,6.21490403 79.3087794,5.70077928 C79.4554635,5.18665453 79.528017,4.69889515 79.528017,4.2360364 C79.528017,3.67650463 79.4570408,3.14040873 79.3166657,2.62481924 C79.1762906,2.10922975 78.97598,1.65808894 78.7157341,1.27286156 C78.4570653,0.887634184 78.1431929,0.578573437 77.7741168,0.347144062 C77.4034634,0.115714687 76.9981106,0 76.5485948,0 C75.8546055,0 75.190584,0.285624861 74.5596846,0.85980407 C73.9256308,1.43105379 73.3420489,2.19125535 72.8089389,3.13894399 C72.2742517,4.08663263 71.793191,5.16761288 71.3610249,6.38481421 C70.9320134,7.60201554 70.5771325,8.86022967 70.2979595,10.1579919 C70.1922839,10.1770335 70.0014369,10.1843572 69.7254184,10.179963 C69.4478227,10.1755688 69.1339503,10.1682451 68.7869556,10.1579919 C68.4352292,10.1492034 68.0693076,10.1462739 67.6891908,10.1506681 C67.3074966,10.1565271 66.9573475,10.1784983 66.6387433,10.2180463 C66.3217164,10.2590591 66.0598932,10.3191136 65.8564282,10.3982097 C65.6529631,10.4787706 65.5520192,10.5944852 65.5520192,10.7468185 C65.5520192,10.8434915 65.556751,10.9592062 65.5662145,11.0924978 C65.5772552,11.2272542 65.6135319,11.3561515 65.6766218,11.4806547 C65.7397118,11.6036931 65.8375012,11.7106193 65.9731445,11.8014334 C66.1103651,11.8937122 66.3043667,11.9552314 66.5535719,11.9874557 C67.1198041,12.0519044 67.5503929,12.1046351 67.8484928,12.1485774 C68.1465928,12.191055 68.3926435,12.230603 68.5866451,12.2686864 C68.7806466,12.3067697 68.9620302,12.3433882 69.1339503,12.3814716 C69.3074476,12.4195549 69.5503438,12.4591029 69.8642162,12.5030452 C69.7727358,13.1489968 69.7001824,13.8008074 69.6481332,14.4555475 C69.596084,15.1117523 69.5724253,15.728409 69.5724253,16.3084472 C69.5724253,17.278107 69.6307835,18.161347 69.7159549,19.0035741 C69.1970402,19.6378078 68.4825467,20.4492753 68.0282991,20.9106693 C67.8090616,21.1303808 67.5787834,21.3427685 67.3358871,21.5492972 C67.0898364,21.7543612 66.8469401,21.9389188 66.6024666,22.1015053 C66.3579931,22.2640918 66.1166741,22.3944539 65.8785096,22.4955211 C65.6387679,22.5951236 65.4100669,22.6463896 65.1924066,22.6463896 C64.9021929,22.6463896 64.7129231,22.5218865 64.6230199,22.2728802 C64.534694,22.0224092 64.4905311,21.6767299 64.4905311,21.2358423 C64.4905311,20.718788 64.5772797,20.0816249 64.7476226,19.3272823 C64.9195426,18.571475 65.0725357,17.899158 65.2066018,17.3103313 C65.3406679,16.72004 65.4589616,16.144396 65.5646372,15.5819347 C65.6671583,15.0209382 65.7192075,14.5082782 65.7192075,14.0468842 C65.7192075,13.7451472 65.6908171,13.5063941 65.6324589,13.3306249 C65.5756779,13.1548558 65.4968155,13.0186347 65.3911399,12.9204969 C65.2870415,12.8238239 65.1687479,12.76084 65.0315273,12.7315451 C64.8958839,12.7022502 64.7491998,12.6876028 64.591475,12.6876028 C64.4779131,12.6876028 64.3596195,12.6905323 64.2397486,12.6949265 C64.1198777,12.6993208 64.0015841,12.7022502 63.8864449,12.7022502 C63.7508016,12.7022502 63.6183127,12.6949265 63.4874011,12.6802791 C63.3564895,12.6656317 63.2287324,12.6334073 63.1041298,12.5850708 C62.9779499,12.5367343 62.8722742,12.4591029 62.7902573,12.350712 C62.7066632,12.2437857 62.6199145,12.13393 62.5315886,12.0226095 C62.4416854,11.9098243 62.3312781,11.8102218 62.1940575,11.7223373 C62.0584141,11.6344527 61.8707215,11.5905104 61.6294025,11.5905104 C60.9086,11.5905104 60.2004155,11.7325905 59.5064262,12.0167506 C58.8108597,12.299446 58.1499927,12.6817438 57.5238251,13.1621795 C56.8960802,13.6440799 56.3188073,14.2050764 55.7904291,14.8495633 C55.2636281,15.4940502 54.7699494,16.2571812 54.3109701,17.1418859 C53.8504136,18.0265906 53.5113052,18.8483114 53.2904904,19.6070482 C53.0870254,20.3130542 52.9876588,21.0014834 52.9734635,21.6738004 C52.7558032,21.8349221 52.5349885,21.9828611 52.3078647,22.1058995 C52.0586595,22.2421206 51.8126087,22.3549058 51.5744442,22.4413256 C51.3347025,22.530675 51.1075787,22.5731525 50.8883412,22.5731525 C50.6817217,22.5731525 50.5066471,22.4091013 50.3583857,22.0766047 C50.2132789,21.7455728 50.1423027,21.3178679 50.1423027,20.7920252 C50.1423027,20.1197082 50.1770022,19.4840098 50.2511328,18.8863947 C50.3205318,18.2873148 50.4325164,17.6223216 50.5776233,16.8914149 C50.7211529,16.1619729 50.8331375,15.4955149 50.9041137,14.8920408 C50.9782443,14.2885668 51.0145211,13.6499389 51.0145211,12.9790866 C51.0145211,12.5396638 50.8457555,12.2013082 50.5066471,11.9640198 C50.1706932,11.7252667 49.7574541,11.6051578 49.2685071,11.6051578 C48.8331866,11.6051578 48.4641105,11.7399142 48.162856,12.0064974 C47.8600243,12.2745453 47.5603471,12.6041125 47.2590927,12.9922693 C46.9467975,13.3921441 46.6108436,13.8550029 46.2528082,14.3808456 C45.8947729,14.9066883 45.5572417,15.4076303 45.2402148,15.8836718 C44.9231879,16.361178 44.6313969,16.8416136 44.3601102,17.323514 C44.0904007,17.8054144 43.9452939,18.0602797 43.9232124,18.0895745 L43.7528696,17.9152701 C43.7528696,17.8947637 43.7576013,17.8566804 43.7686421,17.7980907 C43.800187,17.6135331 43.8301548,17.4714531 43.8616997,17.3733153 C44.047815,16.7698412 44.1787267,16.3084472 44.2512801,15.9862038 C44.3443377,15.6170886 44.4279319,15.3050983 44.5004853,15.0516978 C44.5635753,14.8290569 44.6250879,14.4965603 44.6881779,14.0586021 C44.7386498,13.7173171 44.765463,13.3584551 44.765463,12.9790866 C44.765463,12.5396638 44.6093155,12.2013082 44.2985975,11.9640198 C43.9863024,11.7252667 43.6124945,11.6051578 43.1755967,11.6051578 C42.7087312,11.6051578 42.3049556,11.7369847 41.9690017,11.9991737 C41.6314705,12.2628274 41.3112891,12.5938593 41.0100347,12.9922693 C40.6977395,13.3921441 40.3712491,13.8520734 40.0289862,14.3735219 C39.6851461,14.8935056 39.3665419,15.3929829 39.0700192,15.8704891 C38.7750738,16.3465305 38.4990553,16.8284309 38.2451183,17.3161903 C37.9896041,17.8024849 37.8523835,18.0602797 37.8318792,18.0895745 L37.6599592,17.9152701 C37.8161068,17.0979436 37.9659453,16.3567837 38.1126294,15.6947199 C38.1220929,15.6756783 38.1631014,15.4222778 38.2372321,14.9345184 C38.2782405,14.6825826 38.3097855,14.4335763 38.3302897,14.190429 C38.3618347,13.9472817 38.3854934,13.7187818 38.3996886,13.5034646 C38.4154611,13.2896121 38.4233474,13.1006603 38.4233474,12.9336796 C38.4233474,12.6334073 38.4138839,12.3946542 38.3918024,12.2188851 C38.3712982,12.0431159 38.306631,11.9098243 38.1978009,11.8175455 C38.0889707,11.7252667 37.9233596,11.666677 37.6993904,11.6417764 C37.4754211,11.6168758 37.1662804,11.6051578 36.7719683,11.6051578 C36.5132996,11.6051578 36.2987938,11.6227347 36.1331828,11.6564238 C35.9659944,11.6901129 35.8240421,11.7589558 35.7041712,11.8614878 C35.5858776,11.9640198 35.4786247,12.1060999 35.385567,12.2921222 C35.2925094,12.4766798 35.1931427,12.7256861 35.0890443,13.0376764 C34.9849459,13.3394134 34.8713841,13.7275703 34.7467814,14.2050764 C34.6221788,14.6825826 34.4991534,15.2084253 34.3808598,15.7826045 C34.2609889,16.3567837 34.1206138,17.0305654 33.9597345,17.8024849 C33.7988552,18.5744044 33.6758298,19.2613689 33.5938129,19.8633782 C33.5733087,20.006923 33.5622679,20.1328909 33.5449182,20.2735062 C33.4881372,20.3130542 33.442397,20.3496728 33.3840389,20.3906856 C32.8020342,20.7905604 32.1837528,21.1611404 31.5291948,21.5009607 C30.8746367,21.8407811 30.2027289,22.1234764 29.5118941,22.3490468 C28.8210593,22.576082 28.164924,22.6888672 27.5419109,22.6888672 C27.3431776,22.6888672 27.1570623,22.6712903 26.9867195,22.633207 C26.8132222,22.5951236 26.6491883,22.5292102 26.4930408,22.4354667 C26.3368932,22.3402584 26.1823228,22.2084315 26.0324842,22.0385214 C25.8810684,21.8686112 25.7264981,21.6562235 25.5703505,21.4013582 C26.475691,21.1757878 27.3163644,20.8594033 28.0923706,20.4536696 C28.8667995,20.0479358 29.5371301,19.5865418 30.0986305,19.066558 C30.6601309,18.5480391 31.1522324,17.9255233 31.574935,17.1990109 C31.9960603,16.4739632 32.2074116,15.8177583 32.2074116,15.2333259 C32.2074116,14.6840474 32.1033132,14.1874995 31.8951164,13.7436824 C31.6869196,13.3013301 31.3982832,12.9219617 31.029207,12.6099714 C30.6601309,12.2965165 30.2248104,12.0533691 29.7263999,11.8805295 C29.2264122,11.7062251 28.6869932,11.6198053 28.1049886,11.6198053 C27.3904951,11.6198053 26.742246,11.7355199 26.1586641,11.9698788 C25.5750822,12.2027729 25.0482813,12.5176926 24.5782612,12.9131732 C24.1082412,13.3071891 23.6981567,13.7641888 23.3464303,14.2841726 C22.9947039,14.8026915 22.7029129,15.3475759 22.4710574,15.9188256 C22.2376247,16.4900753 22.0136554,17.1448154 21.7975724,17.8830458 C21.5799121,18.6212762 21.471082,19.2555099 21.471082,19.7886763 C21.471082,20.251535 21.5215539,20.6997464 21.5988391,21.1391692 C21.2691942,21.4013582 20.9395493,21.6650119 20.5988636,21.9154829 C20.1304209,22.256768 19.6682871,22.5497166 19.2108851,22.7913992 C18.753483,23.031617 18.3386667,23.1517259 17.9648589,23.1517259 C17.6431002,23.1517259 17.4301717,23.0242933 17.3260733,22.769428 C17.2219749,22.513098 17.1699257,22.1688835 17.1699257,21.7353196 C17.1699257,21.2915025 17.2440564,20.7978841 17.3954722,20.2559293 C17.5437335,19.7139744 17.6667589,19.1676253 17.7661256,18.6183467 C17.863915,18.0676034 18.0468758,17.4040749 18.315008,16.6248317 C18.581563,15.8455885 18.7834508,15.2084253 18.9206714,14.7133422 C19.0563147,14.2167944 19.1777628,13.774442 19.2850157,13.3877499 C19.3922686,12.999593 19.4458951,12.7007855 19.4458951,12.4883978 C19.4458951,12.2379268 19.3686099,12.037257 19.2156168,11.8878532 C19.0626237,11.7384494 18.77241,11.6637475 18.3433985,11.6637475 C18.1083885,11.6637475 17.844988,11.6901129 17.5547743,11.7443084 C17.2629833,11.7970391 16.9838104,11.8805295 16.7125237,11.9918499 C16.4428142,12.1046351 16.1999179,12.24818 15.9854122,12.4239491 C15.7504022,12.6187599 15.6084498,12.8384713 15.5564006,13.0816186 C15.463343,13.4302275 15.2204467,14.1801758 14.8261346,15.3314637 C14.4018548,16.7464053 14.1179501,17.6589401 13.977575,18.0705329 C13.9065988,18.2404431 13.7599147,18.9347312 13.5454089,20.097737 C13.3435212,20.1885511 13.1526741,20.2881536 12.9365911,20.3672497 C12.5265065,20.5166535 12.1668939,20.5913554 11.8545987,20.5913554 C11.4287416,20.5913554 11.0801698,20.5386246 10.8104603,20.4316984 C10.5407508,20.3262369 10.3278223,20.1841569 10.1716747,20.0054582 C10.0155271,19.8267596 9.90669697,19.6275546 9.84360703,19.4049137 C9.78209435,19.1822727 9.75054938,18.9567023 9.75054938,18.7238082 C9.75054938,18.502632 9.76947636,18.2887796 9.80575307,18.0807861 C9.84202979,17.8727926 9.88619274,17.688235 9.93824194,17.5241838 C10.0013319,17.3410909 10.0628446,17.1609276 10.1243572,16.9880879 C10.1874472,16.8240367 10.4524249,16.2205626 10.9192904,15.1791305 C10.9823804,15.0443741 11.1479914,14.7309191 11.4177009,14.2387655 C11.5438808,14.0073361 11.6464019,13.7422177 11.7299961,13.4434101 C11.812013,13.2017276 11.8545987,12.9468623 11.8545987,12.6758849 C11.8545987,12.3184876 11.6732151,12.0270038 11.3088708,11.7999686 C10.9461036,11.5743982 10.4618884,11.4601483 9.86095677,11.4601483 C9.63225575,11.4601483 9.41617273,11.4894431 9.21270769,11.5465681 C9.0108199,11.6051578 8.82628184,11.6798597 8.66067076,11.7721385 C8.49348244,11.8629526 8.35941632,11.9728083 8.25531793,12.0973114 C8.15121954,12.2218146 8.08339786,12.3536414 8.05343014,12.4883978 L3.79801406,22.1395886 L3.69233842,22.154236 L3.98886111,12.5601702 C3.98097487,12.3096992 3.9036897,12.088523 3.75858285,11.8951769 C3.61505325,11.7018309 3.41001096,11.6051578 3.14345599,11.6051578 L2.97784491,11.6051578 L2.82958356,11.6344527 L0.843827874,11.9098243 C0.490524241,11.9581609 0.261823228,12.2584332 0.156147588,12.8135707 C0.052049196,13.3687083 0,14.287102 0,15.5702168 C0,15.9554442 0.00473174509,16.3318831 0.0141952353,16.6995336 C0.0252359738,17.0657193 0.0441629542,17.4655941 0.069398928,17.899158 C0.0962121501,18.3341866 0.124602621,18.8190165 0.15457034,19.3536477 C0.186115307,19.8897435 0.219237522,20.5181182 0.252359738,21.243166 L0.285481954,21.7060247 C0.318604169,22.1688835 0.359612627,22.6551781 0.410084574,23.1678381 C0.458979274,23.6790334 0.570963907,24.1506806 0.742883979,24.5842445 C0.913226802,25.0192731 1.17662728,25.3781351 1.53150816,25.66376 C1.88638904,25.9479201 2.38479953,26.0900002 3.02831686,26.0900002 C3.36111626,26.0900002 3.72861513,25.9332727 4.13081346,25.6198177 C4.5330118,25.3063627 4.93836462,24.9035584 5.3484492,24.4114048 C5.76011102,23.9192512 6.15757761,23.3699726 6.54084896,22.7621043 C6.92569756,22.154236 7.26796046,21.5610152 7.56921489,20.9824417 C7.58025563,21.3486275 7.67015879,21.7016305 7.84207886,22.0385214 C8.01399893,22.376877 8.25216344,22.6800787 8.55814962,22.9495914 C8.86571305,23.2205689 9.23952091,23.4344213 9.68115045,23.5940783 C10.12278,23.7522705 10.624345,23.8328314 11.1842681,23.8328314 C11.8356717,23.8328314 12.5217748,23.7141872 13.2378455,23.4812931 C13.2615042,23.7317641 13.2678132,23.9939531 13.3293259,24.2151293 C13.4286926,24.5769208 13.5911491,24.8845168 13.8198502,25.1349878 C14.0485512,25.3854588 14.3466511,25.5817344 14.7157272,25.7208849 C15.0848033,25.8600355 15.5390509,25.9303432 16.0800471,25.9303432 C16.6825559,25.9303432 17.318187,25.8292759 17.9885176,25.6271414 C18.6588481,25.4250069 19.3149835,25.1716064 19.9585008,24.8669398 C20.6035954,24.5637381 21.2029497,24.2312414 21.7597184,23.8694499 C22.0089237,23.7068635 22.2344702,23.550136 22.4473987,23.396338 C22.59566,23.6336263 22.7439214,23.8709147 22.925305,24.0833024 C23.4110975,24.6472284 24.0167608,25.0954397 24.7454496,25.4294011 C25.4725611,25.7648272 26.3211207,25.9303432 27.2911284,25.9303432 C27.9141415,25.9303432 28.5308456,25.862965 29.1380863,25.7296734 C29.7453269,25.5949171 30.3320633,25.4162184 30.8998727,25.1935775 C31.4645276,24.9694719 32.0055238,24.7146066 32.5197068,24.4260522 C32.8225384,24.2561421 33.0906707,24.0803729 33.3714209,23.9060685 C33.3777299,23.9646582 33.3745754,24.0261774 33.3824616,24.0847672 C33.4297791,24.4348407 33.5228367,24.7482957 33.6632118,25.0251321 C33.8035869,25.3019685 34.0038975,25.5202152 34.2625662,25.6842664 C34.5228122,25.8497823 34.8666523,25.9303432 35.2925094,25.9303432 C35.6237315,25.9303432 35.9281405,25.862965 36.2025817,25.7267439 C36.4786001,25.5905228 36.7199191,25.3312633 36.9281159,24.9475007 C37.6441867,23.646809 38.2293458,22.5467871 38.6804389,21.647435 C39.1331091,20.7510124 39.5037625,20.0201057 39.7955534,19.4561797 C40.0857671,18.8937184 40.3113137,18.4674782 40.472193,18.1759944 C40.6330723,17.8845105 40.7766019,17.6662639 40.9012046,17.5212543 L41.1346373,17.5212543 C40.9690262,18.411818 40.8286511,19.2452567 40.7150892,20.0201057 C40.6614628,20.3496728 40.6109909,20.6807047 40.5589417,21.0146661 C40.5068925,21.3500922 40.459575,21.6664767 40.4185666,21.9667489 C40.3759808,22.2670212 40.3460131,22.5336044 40.3255089,22.7664986 C40.3034274,22.9993927 40.2939639,23.1780913 40.2939639,23.3040592 C40.2939639,23.5940783 40.3113137,23.8943506 40.3475904,24.2034113 C40.3838671,24.5124721 40.4579978,24.7951674 40.5652507,25.0529622 C40.675658,25.3107569 40.8286511,25.5202152 41.0258072,25.6842664 C41.2229632,25.8497823 41.4879409,25.9303432 41.8207403,25.9303432 C42.2576381,25.9303432 42.6409095,25.8615003 42.9737089,25.7223497 C43.3065083,25.5831991 43.6077627,25.3122217 43.8774722,24.9108821 L47.0398552,17.4758473 L47.2732879,17.4758473 C47.191271,18.1774591 47.1266038,18.8717472 47.0792864,19.5572469 C47.0335462,20.2442113 47.0083102,20.8945572 47.0083102,21.5068197 C47.0083102,22.1410534 47.0430097,22.7269505 47.1108314,23.2645111 C47.1770758,23.8050013 47.2906377,24.2722542 47.445208,24.6691996 C47.6013556,25.0661449 47.8063979,25.3752056 48.0603349,25.5978465 C48.3158491,25.8204875 48.6297215,25.9303432 49.0035294,25.9303432 C49.7606086,25.9303432 50.4419799,25.8395291 51.0444888,25.6564363 C51.6454204,25.4748081 52.2006118,25.2404493 52.7053313,24.9548244 C53.0523259,24.7570841 53.3709301,24.52419 53.694266,24.2956901 C53.8346411,24.4992894 53.9876342,24.6882412 54.1611315,24.8581514 C54.5254759,25.2126192 54.9434467,25.4850613 55.4166212,25.6740132 C55.8897957,25.8644297 56.374011,25.959638 56.8739987,25.959638 C57.3440187,25.959638 57.8140387,25.8878656 58.285636,25.7443208 C58.7572333,25.6022408 59.2099036,25.4176832 59.6452241,25.1935775 C60.0789674,24.9694719 60.4795885,24.7190008 60.8455101,24.4421644 C61.213009,24.165328 61.5221497,23.8928858 61.7729321,23.6263026 C62.108886,24.3982221 62.5063526,24.9885135 62.9669092,25.3942473 C63.4274657,25.7999811 64.0031613,26.0035803 64.6939961,26.0035803 C65.26496,26.0035803 65.8359239,25.8717535 66.4084651,25.6080997 C66.979429,25.344446 67.5141162,25.0222026 68.0125267,24.6413694 C68.5109371,24.262001 68.9604529,23.8621262 69.361074,23.4432098 C69.6859872,23.1004599 70.1181532,22.6712903 70.3989034,22.3534411 C70.5187743,22.6991204 70.6354907,23.0477292 70.7790203,23.3480015 C71.1827959,24.1814402 71.6827836,24.8215328 72.282138,25.2653499 C72.8814924,25.709167 73.5754816,25.9303432 74.3609513,25.9303432 C74.7442227,25.9303432 75.1732342,25.862965 75.6464087,25.7282087 C76.1211605,25.5934523 76.6621567,25.3913178 77.2693973,25.1203404 C77.8782152,24.8508277 78.5737817,24.5124721 79.3529424,24.108203 C79.8718571,23.8386903 80.455439,23.5281649 81.0689886,23.2000625 C81.2472177,23.5135174 81.4506827,23.8093955 81.6841155,24.0833024 C82.169908,24.6472284 82.7755713,25.0954397 83.5042601,25.4294011 C84.2313716,25.7648272 85.0799312,25.9303432 86.0499389,25.9303432 C86.672952,25.9303432 87.2896562,25.862965 87.8968968,25.7296734 C88.5041374,25.5949171 89.092451,25.4162184 89.657106,25.1935775 C90.2233381,24.9694719 90.7643343,24.7146066 91.27694,24.4260522 C91.791123,24.1374979 92.2721837,23.8445493 92.718545,23.5457418 C93.7484882,22.8514536 94.7184959,22.051704 95.6333,21.1479577 L93.6238856,19.2511157 Z M84.0010933,18.2887796 C84.0215976,17.995831 84.1178097,17.6237863 84.2897298,17.1711808 C84.4616498,16.7185752 84.6130657,16.3392068 84.7439773,16.0316108 C84.8748889,15.7254795 85.0452317,15.4515726 85.2597375,15.2113548 C85.4742433,14.971137 85.739221,14.7763262 86.0578252,14.6254576 C86.3748521,14.4745891 86.7581235,14.3984225 87.206062,14.3984225 C87.4568445,14.3984225 87.6681958,14.5346436 87.8416931,14.8085505 C88.0120359,15.0824574 88.0987846,15.4310662 88.0987846,15.8558417 C88.0987846,16.1575787 87.9158238,16.5398766 87.5514794,17.0012706 C87.187135,17.4641293 86.8133272,17.8317798 86.4332103,18.1056867 C86.0515162,18.3795936 85.6398544,18.6022346 85.1966476,18.776539 C84.755018,18.9523081 84.3449335,19.0387279 83.9679711,19.0387279 C83.9679711,18.8321992 83.9790118,18.5817282 84.0010933,18.2887796 Z M60.8518191,19.0738818 C60.8108106,19.3844073 60.7193302,19.7725641 60.5789551,20.2383524 C60.4401573,20.7041406 60.254042,21.1567461 60.025341,21.5932395 C59.7966399,22.0311976 59.5253532,22.4047071 59.213058,22.7152326 C58.9023401,23.0257581 58.552191,23.1810208 58.1673424,23.1810208 C57.9291779,23.1810208 57.7320218,23.1238958 57.574297,23.0096459 C57.4181494,22.8953959 57.2935468,22.7459922 57.2004891,22.5614346 C57.1058542,22.3783417 57.0411871,22.1688835 57.0064876,21.9359893 C56.9686336,21.7016305 56.9512839,21.4599479 56.9512839,21.2109416 C56.9512839,20.7905604 57.0112193,20.3408844 57.129513,19.8633782 C57.2493838,19.385872 57.4544261,18.8307344 57.7462171,18.1994303 C58.0364308,17.5681261 58.3329535,17.0378892 58.6342079,16.6072548 C58.9338851,16.1766204 59.26353,15.7943225 59.6231426,15.4588963 C59.981178,15.124935 60.3644494,14.8598165 60.7698022,14.663541 C61.1735778,14.4672654 61.5883941,14.3691276 62.0158284,14.3691276 L60.8518191,19.0738818 Z M25.2422828,18.2887796 C25.262787,17.995831 25.3589992,17.6237863 25.5309193,17.1711808 C25.7028393,16.7185752 25.8542552,16.3392068 25.9851668,16.0316108 C26.1145011,15.7254795 26.2879985,15.4515726 26.500927,15.2113548 C26.7154328,14.971137 26.9804105,14.7763262 27.2990147,14.6254576 C27.6160416,14.4745891 27.9993129,14.3984225 28.4488287,14.3984225 C28.698034,14.3984225 28.9093852,14.5346436 29.0813053,14.8085505 C29.2532254,15.0824574 29.3399741,15.4310662 29.3399741,15.8558417 C29.3399741,16.1575787 29.1570132,16.5398766 28.7926689,17.0012706 C28.4267472,17.4641293 28.0545166,17.8317798 27.6743998,18.1056867 C27.2927057,18.3795936 26.8810439,18.6022346 26.4378371,18.776539 C25.9962075,18.9523081 25.5861229,19.0387279 25.2107378,19.0387279 C25.2107378,18.8321992 25.2202013,18.5817282 25.2422828,18.2887796 Z M73.8672726,7.85248657 C74.0912419,7.02930107 74.3309836,6.27495849 74.5864978,5.59092357 C74.8420121,4.9054239 75.1069898,4.34296263 75.3845855,3.90207503 C75.660604,3.46118742 75.9350452,3.24147599 76.2063319,3.24147599 C76.403488,3.24147599 76.556481,3.27955931 76.6684657,3.35719068 C76.7772958,3.43335731 76.8577355,3.53003034 76.9097847,3.64428028 C76.9618339,3.75999497 76.9965333,3.88303337 77.0107286,4.01193074 C77.0265011,4.14229286 77.0343873,4.25947229 77.0343873,4.36493378 C77.0343873,4.67106504 76.9444841,5.06068665 76.7678323,5.53672808 C76.5911805,6.01423426 76.3672112,6.52689427 76.0959245,7.0747081 C75.8246378,7.62252194 75.5202289,8.18058898 75.1811205,8.74744447 C74.8420121,9.31429996 74.5155217,9.84014266 74.2032265,10.3264373 C74.0360382,10.3132546 73.8751588,10.3000719 73.717434,10.2898187 C73.5628637,10.2781008 73.4051388,10.2663828 73.2489912,10.2517354 C73.4366838,9.47542168 73.6433033,8.67713681 73.8672726,7.85248657 Z" id="Combined-Shape" fill="#FFFFFF"></path>
    </g>
</svg>