<?xml version="1.0" encoding="UTF-8" standalone="no"?>
<svg width="20px" height="20px" viewBox="0 0 20 20" version="1.1" xmlns="http://www.w3.org/2000/svg" xmlns:xlink="http://www.w3.org/1999/xlink">
    <!-- Generator: Sketch 3.8.3 (29802) - http://www.bohemiancoding.com/sketch -->
    <title>Group</title>
    <desc>Created with Sketch.</desc>
    <defs></defs>
    <g id="------" stroke="none" stroke-width="1" fill="none" fill-rule="evenodd">
        <g id="Profile-Copy-6" transform="translate(-359.000000, -1785.000000)" fill="#ABABAB">
            <g id="Group-2" transform="translate(325.000000, 1379.000000)">
                <g id="Group-6" transform="translate(33.000000, 372.000000)">
                    <g id="Group" transform="translate(1.000000, 34.000000)">
                        <path d="M0,3 L0,3 L1,2 L1,9 L0,8 L20,8 L19,9 L19,2 L20,3 L0,3 Z M0,2 L20,2 L20,9 L0,9 L0,2 L0,2 Z" id="Rectangle-path"></path>
                        <path d="M0,9 L0,9 L1,8 L1,20 L0,19 L20,19 L19,20 L19,8 L20,9 L0,9 Z M0,8 L20,8 L20,20 L0,20 L0,8 L0,8 Z" id="Rectangle-path"></path>
                        <rect id="Rectangle-327" x="13.5" y="0.5" width="1" height="4"></rect>
                        <rect id="Rectangle-327" x="5.5" y="0.5" width="1" height="4"></rect>
                    </g>
                </g>
            </g>
        </g>
    </g>
</svg>