<?xml version="1.0" encoding="UTF-8" standalone="no"?>
<svg width="15px" height="3px" viewBox="0 0 15 3" version="1.1" xmlns="http://www.w3.org/2000/svg" xmlns:xlink="http://www.w3.org/1999/xlink">
    <!-- Generator: Sketch 3.8.3 (29802) - http://www.bohemiancoding.com/sketch -->
    <title>Combined Shape</title>
    <desc>Created with Sketch.</desc>
    <defs></defs>
    <g id="------" stroke="none" stroke-width="1" fill="none" fill-rule="evenodd">
        <g id="Comment-this-Maram-Copy-5" transform="translate(-1024.000000, -707.000000)" fill="#BFBFBF">
            <g id="Group-21" transform="translate(965.000000, 555.000000)">
                <g id="Group-17" transform="translate(59.000000, 144.000000)">
                    <path d="M13.5,11 C14.3284271,11 15,10.3284271 15,9.5 C15,8.67157288 14.3284271,8 13.5,8 C12.6715729,8 12,8.67157288 12,9.5 C12,10.3284271 12.6715729,11 13.5,11 Z M7.5,11 C8.32842712,11 9,10.3284271 9,9.5 C9,8.67157288 8.32842712,8 7.5,8 C6.67157288,8 6,8.67157288 6,9.5 C6,10.3284271 6.67157288,11 7.5,11 Z M1.5,11 C2.32842712,11 3,10.3284271 3,9.5 C3,8.67157288 2.32842712,8 1.5,8 C0.671572875,8 0,8.67157288 0,9.5 C0,10.3284271 0.671572875,11 1.5,11 Z" id="Combined-Shape"></path>
                </g>
            </g>
        </g>
    </g>
</svg>