<?xml version="1.0" encoding="UTF-8" standalone="no"?>
<svg width="17px" height="15px" viewBox="0 0 17 15" version="1.1" xmlns="http://www.w3.org/2000/svg" xmlns:xlink="http://www.w3.org/1999/xlink">
    <!-- Generator: Sketch 39.1 (31720) - http://www.bohemiancoding.com/sketch -->
    <title>Icon</title>
    <desc>Created with Sketch.</desc>
    <defs></defs>
    <g id="Page-1" stroke="none" stroke-width="1" fill="none" fill-rule="evenodd">
        <g id="Artboard" fill="#474747">
            <g id="Icon">
                <path d="M0.121428571,14.8952381 L16.8785714,14.8952381 L16.8785714,0.080952381 L0.121428571,0.080952381 L0.121428571,14.8952381 L0.121428571,14.8952381 Z M1.2952381,13.7214286 L1.2952381,5.44404762 L15.7047619,5.44404762 L15.7047619,13.7214286 L1.2952381,13.7214286 L1.2952381,13.7214286 Z M15.7047619,1.2547619 L15.7047619,4.25 L1.2952381,4.25 L1.2952381,1.2547619 L15.7047619,1.2547619 L15.7047619,1.2547619 Z" id="Shape"></path>
                <rect id="Rectangle-path" x="3.05595238" y="7.36666667" width="2.5702381" height="1.17380952"></rect>
                <rect id="Rectangle-path" x="3.05595238" y="10.0988095" width="2.5702381" height="1.17380952"></rect>
                <rect id="Rectangle-path" x="7.2047619" y="7.36666667" width="2.5702381" height="1.17380952"></rect>
                <rect id="Rectangle-path" x="7.2047619" y="10.0988095" width="2.5702381" height="1.17380952"></rect>
                <rect id="Rectangle-path" x="11.3738095" y="7.36666667" width="2.5702381" height="1.17380952"></rect>
                <rect id="Rectangle-path" x="11.3738095" y="10.0988095" width="2.5702381" height="1.17380952"></rect>
                <ellipse id="Oval" cx="3.90595238" cy="2.73214286" rx="0.89047619" ry="0.89047619"></ellipse>
                <ellipse id="Oval" cx="13.0940476" cy="2.73214286" rx="0.89047619" ry="0.89047619"></ellipse>
            </g>
        </g>
    </g>
</svg>