<?xml version="1.0" encoding="UTF-8" standalone="no"?>
<svg width="40px" height="33px" viewBox="0 0 40 33" version="1.1" xmlns="http://www.w3.org/2000/svg" xmlns:xlink="http://www.w3.org/1999/xlink">
    <!-- Generator: Sketch 41.1 (35376) - http://www.bohemiancoding.com/sketch -->
    <title>Shape</title>
    <desc>Created with Sketch.</desc>
    <defs></defs>
    <g id="Page-1" stroke="none" stroke-width="1" fill="none" fill-rule="evenodd">
        <path d="M19.5238063,32.1492035 C17.6418564,32.1492035 16.0979377,29.3151173 13.735364,24.6901948 C12.4693415,22.2123624 10.3500409,18.0644192 9.37694848,18.0644192 C9.15508705,18.0644192 8.98014908,18.1414101 8.81067792,18.3140702 C8.01890139,19.1186027 7.87220861,21.3312946 7.88314223,22.0433468 L7.88314223,31.2198456 C7.88314223,31.6913581 7.50092099,32.0740349 7.02895293,32.0740349 L4.71649165,32.0740349 C4.24452359,32.0740349 3.86230235,31.6913581 3.86230235,31.2198456 C3.86230235,17.9058816 2.3867188,15.8512716 1.30930136,14.3506319 C0.60681608,13.3725282 0,12.5274502 0,9.78948879 C0,2.53411875 4.44269551,0.189312168 4.63175607,0.0931873984 C4.96568714,-0.0771948944 5.37114233,-0.00931531789 5.63218258,0.259014015 C8.83937868,3.55914591 11.6652647,8.00730823 14.3982149,12.3096889 C16.1430389,15.0563061 17.790827,17.6507638 19.3602575,19.6343052 C20.8062291,21.461587 22.4786179,22.3886671 24.3314114,22.3886671 C25.8092728,22.3886671 26.8825902,21.7800288 26.8930682,21.7736508 C27.1126518,21.6474586 27.3809811,21.6224024 27.6183319,21.7094158 C39.1259702,25.9329833 39.5947492,28.6376883 39.2626404,29.6044028 C39.1719825,29.8668097 38.9587768,30.0695373 38.6918142,30.1469838 C33.0459646,31.782016 22.7023016,32.1492035 19.5238063,32.1492035 L19.5238063,32.1492035 Z M9.37694848,16.3560406 C11.2980772,16.3560406 12.862952,19.2279389 15.2569599,23.913452 C16.4223018,26.1949346 18.5921705,30.4408249 19.5238063,30.4408249 C22.4772512,30.4408249 31.7257296,30.121472 37.3278447,28.7429244 C36.665905,27.9188025 34.4896584,26.0842317 27.3746032,23.4401172 C26.8210885,23.6915905 25.7154259,24.0961346 24.3314114,24.0961346 C22.6808899,24.0961346 20.245881,23.5052634 18.0204331,20.6930444 C16.3963345,18.6398011 14.7253124,16.0093536 12.9558878,13.2244687 C10.411087,9.21820698 7.78337292,5.08256406 4.89142962,1.95964797 C3.87186927,2.74686883 1.7083786,4.98370588 1.7083786,9.78857765 C1.7083786,11.976669 2.10153347,12.5242613 2.69696036,13.3529388 C3.8841696,15.0071048 5.50143467,17.2580645 5.56840312,30.3642896 L6.17476363,30.3642896 L6.17476363,22.0565583 C6.16929682,21.7157937 6.16200773,18.5687325 7.59294565,17.1154718 C8.08222529,16.6189031 8.69906385,16.3560406 9.37694848,16.3560406 L9.37694848,16.3560406 Z" id="Shape" fill="#474747"></path>
    </g>
</svg>