<?xml version="1.0" encoding="UTF-8" standalone="no"?>
<svg width="22px" height="24px" viewBox="0 0 22 24" version="1.1" xmlns="http://www.w3.org/2000/svg" xmlns:xlink="http://www.w3.org/1999/xlink">
    <!-- Generator: Sketch 39.1 (31720) - http://www.bohemiancoding.com/sketch -->
    <title>ui-24px-outline-1_trash-simple</title>
    <desc>Created with Sketch.</desc>
    <defs></defs>
    <g id="Page-1" stroke="none" stroke-width="1" fill="none" fill-rule="evenodd">
        <g id="ui-24px-outline-1_trash-simple" transform="translate(-1.000000, 0.000000)" stroke-width="1.5" stroke="#BFBFBF">
            <g id="Group" transform="translate(1.000000, 1.000000)">
                <polyline id="Shape" points="19 4 19 22 3 22 3 4"></polyline>
                <path d="M0,4 L22,4" id="Shape"></path>
                <path d="M11,10 L11,16" id="Shape"></path>
                <path d="M7,10 L7,16" id="Shape"></path>
                <path d="M15,10 L15,16" id="Shape"></path>
                <polyline id="Shape" points="7 4 7 0 15 0 15 4"></polyline>
            </g>
            <g id="Group" transform="translate(1.000000, 1.000000)">
                <polyline id="Shape" points="19 4 19 22 3 22 3 4"></polyline>
                <path d="M0,4 L22,4" id="Shape"></path>
                <path d="M11,10 L11,16" id="Shape"></path>
                <path d="M7,10 L7,16" id="Shape"></path>
                <path d="M15,10 L15,16" id="Shape"></path>
                <polyline id="Shape" points="7 4 7 0 15 0 15 4"></polyline>
            </g>
        </g>
    </g>
</svg>