<?xml version="1.0" encoding="UTF-8" standalone="no"?>
<svg width="47px" height="36px" viewBox="0 0 47 36" version="1.1" xmlns="http://www.w3.org/2000/svg" xmlns:xlink="http://www.w3.org/1999/xlink">
    <!-- Generator: Sketch 41.1 (35376) - http://www.bohemiancoding.com/sketch -->
    <title>svg2</title>
    <desc>Created with Sketch.</desc>
    <defs></defs>
    <g id="Page-1" stroke="none" stroke-width="1" fill="none" fill-rule="evenodd">
        <g id="svg2" transform="translate(-1.000000, -1.000000)">
            <g id="g10" transform="translate(24.000000, 18.750000) scale(1, -1) translate(-24.000000, -18.750000) translate(0.250000, 0.000000)">
                <g id="g12" transform="translate(0.875000, 0.375000)">
                    <path d="M46.3,21.7875 C46.3,13.875 39.9,7.45 32,7.45 C24.1,7.45 17.7,13.8625 17.7,21.7875 C17.7,29.7125 24.1,36.125 32,36.125 C39.9,36.125 46.3,29.7125 46.3,21.7875 L46.3,21.7875" id="path14" fill="#F59511"></path>
                    <path d="M28.65,21.7875 C28.65,13.875 22.25,7.45 14.35,7.45 C6.45,7.45 0.05,13.8625 0.05,21.7875 C0.05,29.7125 6.45,36.125 14.35,36.125 C22.25,36.125 28.65,29.7125 28.65,21.7875 L28.65,21.7875" id="path16" fill="#EA1C24"></path>
                    <path d="M23.175,33.075 C19.8375,30.45 17.7,26.375 17.7,21.7875 C17.7,17.2125 19.8375,13.125 23.175,10.5 C26.5125,13.125 28.65,17.2 28.65,21.7875 C28.65,26.375 26.5125,30.45 23.175,33.075" id="path18" fill="#F14D1C"></path>
                    <path d="M45.425,14.1875 L45.425,14.6125 L45.6,14.6125 L45.6,14.7 L45.1625,14.7 L45.1625,14.6125 L45.3375,14.6125 L45.3375,14.1875 L45.425,14.1875 Z M46.275,14.1875 L46.275,14.7 L46.1375,14.7 L45.9875,14.35 L45.8375,14.7 L45.7,14.7 L45.7,14.1875 L45.8,14.1875 L45.8,14.575 L45.95,14.2375 L46.05,14.2375 L46.2,14.575 L46.2,14.1875 L46.275,14.1875 L46.275,14.1875 Z" id="path20" fill="#F59511"></path>
                    <path d="M3.225,0.3625 L2.4125,0.3625 L2.4125,4.15 L3.2125,4.15 L3.2125,3.6875 C3.2125,3.6875 3.9125,4.25 4.325,4.25 C5.1375,4.2375 5.6125,3.55 5.6125,3.55 C5.6125,3.55 6,4.25 6.8875,4.25 C8.1875,4.25 8.3875,3.0625 8.3875,3.0625 L8.3875,0.3875 L7.6125,0.3875 L7.6125,2.7375 C7.6125,2.7375 7.6125,3.45 6.775,3.45 C5.9,3.45 5.825,2.7375 5.825,2.7375 L5.825,0.3875 L5.0125,0.3875 L5.0125,2.7625 C5.0125,2.7625 4.9375,3.5125 4.2,3.5125 C3.25,3.5125 3.225,2.75 3.225,2.75 L3.225,0.3625" id="path22" fill="#100F0D"></path>
                    <path d="M27.9125,4.25 C27.5,4.2625 26.8,3.6875 26.8,3.6875 L26.8,4.15 L26,4.15 L26,0.375 L26.8125,0.375 L26.8,2.75 C26.8,2.75 26.8125,3.5125 27.775,3.5125 C27.95,3.5125 28.0875,3.475 28.2,3.4 L28.2,3.4 L28.4625,4.1375 C28.3,4.2 28.1125,4.25 27.9125,4.25" id="path24" fill="#100F0D"></path>
                    <path d="M39.35,4.25 C38.9375,4.2625 38.2375,3.6875 38.2375,3.6875 L38.2375,4.15 L37.4375,4.15 L37.4375,0.375 L38.25,0.375 L38.2375,2.75 C38.2375,2.75 38.25,3.5125 39.2125,3.5125 C39.3875,3.5125 39.525,3.475 39.6375,3.4 L39.6375,3.4 L39.9,4.1375 C39.725,4.2 39.55,4.25 39.35,4.25 L39.35,4.25" id="path26" fill="#100F0D"></path>
                    <path d="M11.1625,3.5 C11.8125,3.5 12.35,2.9375 12.35,2.2375 C12.35,1.5375 11.825,0.975 11.1625,0.975 C10.5125,0.975 9.9875,1.5375 9.9875,2.2375 C9.975,2.925 10.5125,3.5 11.1625,3.5 Z M11,4.2625 C9.7875,4.2625 9.1375,3.175 9.1375,2.2625 C9.1375,1.325 9.875,0.25 11.0375,0.25 C11.7125,0.25 12.275,0.75 12.275,0.75 L12.275,0.3625 L13.075,0.3625 L13.075,4.15 L12.275,4.15 L12.275,3.675 C12.275,3.675 11.75,4.2625 11,4.2625 L11,4.2625 L11,4.2625 Z" id="path28" fill="#100F0D"></path>
                    <path d="M34.4625,3.5 C35.1125,3.5 35.65,2.9375 35.65,2.2375 C35.65,1.5375 35.125,0.975 34.4625,0.975 C33.8125,0.975 33.2875,1.5375 33.2875,2.2375 C33.2875,2.925 33.8125,3.5 34.4625,3.5 Z M34.3125,4.2625 C33.1,4.2625 32.45,3.175 32.45,2.2625 C32.45,1.325 33.1875,0.25 34.35,0.25 C35.025,0.25 35.5875,0.75 35.5875,0.75 L35.5875,0.3625 L36.3875,0.3625 L36.3875,4.15 L35.5875,4.15 L35.5875,3.675 C35.575,3.675 35.05,4.2625 34.3125,4.2625 L34.3125,4.2625 L34.3125,4.2625 Z" id="path30" fill="#100F0D"></path>
                    <path d="M42.1375,3.5 C42.7875,3.5 43.325,2.9375 43.325,2.2375 C43.325,1.5375 42.8,0.975 42.1375,0.975 C41.475,0.975 40.9625,1.5375 40.9625,2.2375 C40.9625,2.925 41.4875,3.5 42.1375,3.5 Z M41.975,4.2625 C40.7625,4.2625 40.1125,3.175 40.1125,2.2625 C40.1125,1.325 40.85,0.25 42.0125,0.25 C42.6875,0.25 43.25,0.75 43.25,0.75 L43.25,0.3625 L44.05,0.3625 L44.05,5.65 L43.25,5.65 L43.25,3.675 C43.25,3.675 42.725,4.2625 41.975,4.2625 L41.975,4.2625 L41.975,4.2625 Z" id="path32" fill="#100F0D"></path>
                    <path d="M15.5125,0.2375 C14.6875,0.2375 13.925,0.75 13.925,0.75 L14.275,1.2875 C14.275,1.2875 15,0.95 15.5125,0.95 C15.85,0.95 16.4125,1.0625 16.425,1.4 C16.4375,1.75 15.475,1.8625 15.475,1.8625 C15.475,1.8625 14.05,1.8875 14.05,3.0625 C14.05,3.8 14.7625,4.275 15.675,4.275 C16.2,4.275 17.1875,3.8125 17.1875,3.8125 L16.7875,3.1875 C16.7875,3.1875 16.025,3.4875 15.625,3.5 C15.2875,3.5125 14.875,3.35 14.875,3.05 C14.875,2.25 17.25,3.1125 17.25,1.4875 C17.25,0.4375 16.275,0.2375 15.5125,0.2375 L15.5125,0.2375" id="path34" fill="#100F0D"></path>
                    <path d="M18.5625,5.25 L18.5625,4.15 L17.85,4.15 L17.85,3.35 L18.5625,3.35 L18.5625,1.45 C18.5625,1.45 18.5,0.1625 19.8875,0.1625 C20.275,0.1625 21.025,0.45 21.025,0.45 L20.7,1.275 C20.7,1.275 20.4,1.025 20.0625,1.025 C19.425,1.0375 19.4375,1.45 19.4375,1.45 L19.4375,3.35 L20.7625,3.35 L20.7625,4.15 L19.4375,4.15 L19.4375,5.25 L18.5625,5.25" id="path36" fill="#100F0D"></path>
                    <path d="M23.25,3.475 L23.35,3.475 C24.325,3.475 24.3125,2.55 24.3125,2.55 L22.3375,2.55 C22.35,2.5625 22.3,3.425 23.25,3.475 Z M23.375,4.225 C22.075,4.225 21.425,3.15 21.425,2.225 C21.425,1.2625 22.0125,0.1875 23.45,0.1875 C24.0625,0.1875 24.925,0.725 24.925,0.725 L24.55,1.375 C24.55,1.375 23.9625,0.9625 23.45,0.9625 C22.4125,0.9625 22.35,1.975 22.35,1.975 L25.125,1.975 C25.125,1.9625 25.325,4.225 23.375,4.225 L23.375,4.225 Z" id="path38" fill="#100F0D"></path>
                    <path d="M31.6125,1.375 L31.9875,0.6375 C31.9875,0.6375 31.4,0.25 30.7375,0.25 C29.375,0.25 28.6125,1.275 28.6125,2.25 C28.6125,3.775 29.825,4.225 30.6375,4.225 C31.375,4.225 32.025,3.8 32.025,3.8 L31.6125,3.0625 C31.6125,3.0625 31.3625,3.4625 30.625,3.4625 C29.8875,3.4625 29.5,2.825 29.5,2.225 C29.5,1.55 29.95,0.975 30.6375,0.975 C31.1625,0.975 31.6125,1.375 31.6125,1.375 L31.6125,1.375" id="path40" fill="#100F0D"></path>
                    <path d="M45.75,0.625 C45.775,0.625 45.7875,0.625 45.8,0.6125 C45.8125,0.6 45.8125,0.5875 45.8125,0.575 C45.8125,0.5625 45.8125,0.55 45.8,0.5375 C45.7875,0.525 45.775,0.525 45.75,0.525 L45.6625,0.525 L45.6625,0.625 L45.75,0.625 Z M45.75,0.6875 L45.5875,0.6875 L45.5875,0.3375 L45.6625,0.3375 L45.6625,0.475 L45.7,0.475 L45.8125,0.3375 L45.9,0.3375 L45.7875,0.475 C45.825,0.475 45.85,0.4875 45.875,0.5125 C45.9,0.5375 45.9,0.55 45.9,0.5875 C45.9,0.625 45.8875,0.65 45.8625,0.675 C45.825,0.675 45.7875,0.6875 45.75,0.6875 Z M45.725,0.2125 C45.6375,0.2125 45.5625,0.2375 45.5125,0.3 C45.4625,0.35 45.425,0.425 45.425,0.5125 C45.425,0.6 45.45,0.6625 45.5125,0.725 C45.5625,0.775 45.6375,0.8125 45.725,0.8125 C45.8125,0.8125 45.875,0.7875 45.9375,0.725 C45.9875,0.675 46.025,0.6 46.025,0.5125 C46.025,0.425 46,0.3625 45.9375,0.3 C45.875,0.2375 45.8125,0.2125 45.725,0.2125 Z M45.725,0.8875 C45.6125,0.8875 45.525,0.85 45.45,0.775 C45.375,0.7 45.3375,0.6125 45.3375,0.5 C45.3375,0.3875 45.375,0.3 45.45,0.225 C45.525,0.15 45.6125,0.1125 45.725,0.1125 C45.8375,0.1125 45.925,0.15 46,0.225 C46.075,0.3 46.1125,0.3875 46.1125,0.5 C46.1125,0.6125 46.075,0.7 46,0.775 C45.925,0.85 45.8375,0.8875 45.725,0.8875 L45.725,0.8875 Z" id="path42" fill="#100F0D"></path>
                </g>
            </g>
        </g>
    </g>
</svg>