<?xml version="1.0" encoding="UTF-8" standalone="no"?>
<svg width="30px" height="26px" viewBox="0 0 30 26" version="1.1" xmlns="http://www.w3.org/2000/svg" xmlns:xlink="http://www.w3.org/1999/xlink">
    <!-- Generator: Sketch 41.1 (35376) - http://www.bohemiancoding.com/sketch -->
    <title>icon-like-grey</title>
    <desc>Created with Sketch.</desc>
    <defs>
        <path d="M27.603587,2.34477361 C24.408369,-0.781591204 19.227561,-0.781591204 16.032343,2.34477361 C15.638225,2.73039863 15.295929,3.1453792 15,3.58170924 C14.704071,3.1453792 14.360411,2.72906429 13.967657,2.34477361 C10.772439,-0.781591204 5.591631,-0.781591204 2.396413,2.34477361 C-0.798804,5.47113843 -0.798804,10.5403061 2.396413,13.6666709 L14.998636,26 L27.603587,13.6666709 C30.798804,10.5403061 30.798804,5.47113843 27.603587,2.34477361 L27.603587,2.34477361 Z" id="path-1"></path>
    </defs>
    <g id="Page-1" stroke="none" stroke-width="1" fill="none" fill-rule="evenodd">
        <g id="icon-like-grey">
            <g id="------">
                <g id="Comment-this-Maram-Copy-5">
                    <g id="Group-5">
                        <g id="Shape-Clipped">
                            <mask id="mask-2" fill="white">
                                <use xlink:href="#path-1"></use>
                            </mask>
                            <use id="path-1" fill="#FF3366" xlink:href="#path-1"></use>
                            <g id="Shape" mask="url(#mask-2)" stroke="#FF3366" stroke-width="3">
                                <path d="M27.603587,2.34477361 C24.408369,-0.781591204 19.227561,-0.781591204 16.032343,2.34477361 C15.638225,2.73039863 15.295929,3.1453792 15,3.58170924 C14.704071,3.1453792 14.360411,2.72906429 13.967657,2.34477361 C10.772439,-0.781591204 5.591631,-0.781591204 2.396413,2.34477361 C-0.798804,5.47113843 -0.798804,10.5403061 2.396413,13.6666709 L14.998636,26 L27.603587,13.6666709 C30.798804,10.5403061 30.798804,5.47113843 27.603587,2.34477361 L27.603587,2.34477361 Z" id="path-1"></path>
                            </g>
                        </g>
                    </g>
                </g>
            </g>
        </g>
    </g>
</svg>