<?xml version="1.0" encoding="utf-8"?>
<!-- Generator: Adobe Illustrator 16.0.0, SVG Export Plug-In . SVG Version: 6.00 Build 0)  -->
<!DOCTYPE svg PUBLIC "-//W3C//DTD SVG 1.1//EN" "http://www.w3.org/Graphics/SVG/1.1/DTD/svg11.dtd">
<svg version="1.1" id="Layer_1" xmlns="http://www.w3.org/2000/svg" xmlns:xlink="http://www.w3.org/1999/xlink" x="0px" y="0px"
	 width="24px" height="20px" viewBox="0 0 24 20" enable-background="new 0 0 24 20" xml:space="preserve">
<title>social-24px-glyph-1_logo-twitter</title>
<desc>Created with Sketch.</desc>
<g id="Page-1">
	<g id="Profile-Copy-6" transform="translate(-1304.000000, -2517.000000)">
		<g id="Group-4" transform="translate(112.000000, 2484.000000)">
			<g id="Group-5">
				<g id="social-24px-glyph-1_logo-twitter" transform="translate(1192.000000, 33.000000)">
					<path id="Shape" fill="#FDFCFF" d="M24,2.6c-0.9,0.4-1.8,0.7-2.8,0.8c1-0.6,1.8-1.6,2.2-2.7c-1,0.6-2,1-3.101,1.2
						c-0.899-1-2.2-1.6-3.6-1.6c-2.7,0-4.9,2.2-4.9,4.9c0,0.4,0,0.8,0.1,1.1C7.7,6.1,4.1,4.1,1.7,1.1C1.2,1.9,1,2.7,1,3.6
						c0,1.7,0.9,3.2,2.2,4.1C2.4,7.7,1.6,7.5,1,7.1c0,0,0,0,0,0.1C1,9.6,2.7,11.6,4.9,12c-0.4,0.1-0.8,0.2-1.3,0.2
						c-0.3,0-0.6,0-0.9-0.101c0.6,2,2.4,3.4,4.6,3.4c-1.7,1.3-3.8,2.1-6.1,2.1c-0.4,0-0.8,0-1.2-0.1c2.2,1.4,4.8,2.2,7.5,2.2
						c9.1,0,14-7.5,14-14V5.1C22.5,4.4,23.3,3.5,24,2.6L24,2.6z"/>
				</g>
			</g>
		</g>
	</g>
</g>
</svg>
