<?xml version="1.0" encoding="UTF-8" standalone="no"?>
<svg width="14px" height="397px" viewBox="0 0 14 397" version="1.1" xmlns="http://www.w3.org/2000/svg" xmlns:xlink="http://www.w3.org/1999/xlink">
    <!-- Generator: Sketch 40.3 (33839) - http://www.bohemiancoding.com/sketch -->
    <title>noun_40254_cc</title>
    <desc>Created with Sketch.</desc>
    <defs></defs>
    <g id="Page-1" stroke="none" stroke-width="1" fill="none" fill-rule="evenodd">
        <g id="noun_40254_cc" fill="#000000">
            <path d="M367.231,0 L32.769,0 C15.813,0 2,13.812 2,30.768 L2,365.231 C2,382.188 15.813,396 32.769,396 L202.832,396 L281.426,396 L367.232,396 C384.187,396 398,382.188 398,365.231 L398,30.768 C398,13.812 384.187,0 367.231,0 L367.231,0 Z M223,376 L223,230 L174,230 L174,194 L223,194 L223,141.804 C223,121.179 228.889,104.374 240.189,93.205 C251.046,82.474 267.012,76.802 286.055,76.802 C299.438,76.802 310.999,77.459 319.999,78.102 L319.999,109.79 L299.536,109.799 C261.416,109.799 260.999,138.116 260.999,147.422 L260.999,194 L316.239,194 L311.502,230 L261,230 L261,376 L223,376 L223,376 Z M378,365.231 C378,371.159 373.158,376 367.231,376 L281,376 L281,250 L329.089,250 L338.985,174 L281,174 L281,147.422 C281,140.52 282.127,136.22 284.088,133.89 C286.374,131.175 291.814,129.799 299.649,129.799 L340,129.781 L340,60.277 L331.112,59.124 C326.576,58.521 308.451,56.802 285.911,56.802 C261.493,56.802 240.86,64.471 226.18,78.981 C210.994,93.991 203,115.715 203,141.804 L203,174 L154,174 L154,250 L203,250 L203,376 L32.769,376 C26.841,376 22,371.159 22,365.231 L22,30.768 C22,24.84 26.841,20 32.769,20 L367.231,20 C373.158,20 378,24.84 378,30.768 L378,365.231 L378,365.231 Z" id="Shape"></path>
        </g>
    </g>
</svg>