<?xml version="1.0" encoding="UTF-8" standalone="no"?>
<svg width="89px" height="30px" viewBox="0 0 89 30" version="1.1" xmlns="http://www.w3.org/2000/svg" xmlns:xlink="http://www.w3.org/1999/xlink">
    <!-- Generator: Sketch 41.1 (35376) - http://www.bohemiancoding.com/sketch -->
    <title>PayPal</title>
    <desc>Created with Sketch.</desc>
    <defs></defs>
    <g id="Page-1" stroke="none" stroke-width="1" fill="none" fill-rule="evenodd">
        <g id="PayPal" transform="translate(-35.000000, -1.000000)">
            <path d="M46.211,6.749 L39.372,6.749 C38.904,6.749 38.506,7.089 38.433,7.551 L35.667,25.088 C35.612,25.434 35.88,25.746 36.231,25.746 L39.496,25.746 C39.964,25.746 40.362,25.406 40.435,24.943 L41.181,20.213 C41.253,19.75 41.652,19.41 42.119,19.41 L44.284,19.41 C48.789,19.41 51.389,17.23 52.068,12.91 C52.374,11.02 52.081,9.535 51.196,8.495 C50.224,7.353 48.5,6.749 46.211,6.749 Z M47,13.154 C46.626,15.608 44.751,15.608 42.938,15.608 L41.906,15.608 L42.63,11.025 C42.673,10.748 42.913,10.544 43.193,10.544 L43.666,10.544 C44.901,10.544 46.066,10.544 46.668,11.248 C47.027,11.668 47.137,12.292 47,13.154 Z" id="Shape" fill="#253B80"></path>
            <path d="M66.654,13.075 L63.379,13.075 C63.1,13.075 62.859,13.279 62.816,13.556 L62.671,14.472 L62.442,14.14 C61.733,13.111 60.152,12.767 58.574,12.767 C54.955,12.767 51.864,15.508 51.262,19.353 C50.949,21.271 51.394,23.105 52.482,24.384 C53.48,25.56 54.908,26.05 56.607,26.05 C59.523,26.05 61.14,24.175 61.14,24.175 L60.994,25.085 C60.939,25.433 61.207,25.745 61.556,25.745 L64.506,25.745 C64.975,25.745 65.371,25.405 65.445,24.942 L67.215,13.733 C67.271,13.388 67.004,13.075 66.654,13.075 Z M62.089,19.449 C61.773,21.32 60.288,22.576 58.394,22.576 C57.443,22.576 56.683,22.271 56.195,21.693 C55.711,21.119 55.527,20.302 55.681,19.392 C55.976,17.537 57.486,16.24 59.351,16.24 C60.281,16.24 61.037,16.549 61.535,17.132 C62.034,17.721 62.232,18.543 62.089,19.449 Z" id="Shape" fill="#253B80"></path>
            <path d="M84.096,13.075 L80.805,13.075 C80.491,13.075 80.196,13.231 80.018,13.492 L75.479,20.178 L73.555,13.753 C73.434,13.351 73.063,13.075 72.643,13.075 L69.409,13.075 C69.016,13.075 68.743,13.459 68.868,13.829 L72.493,24.467 L69.085,29.278 C68.817,29.657 69.087,30.178 69.55,30.178 L72.837,30.178 C73.149,30.178 73.441,30.026 73.618,29.77 L84.564,13.97 C84.826,13.592 84.557,13.075 84.096,13.075 Z" id="Shape" fill="#253B80"></path>
            <path d="M94.992,6.749 L88.152,6.749 C87.685,6.749 87.287,7.089 87.214,7.551 L84.448,25.088 C84.393,25.434 84.661,25.746 85.01,25.746 L88.52,25.746 C88.846,25.746 89.125,25.508 89.176,25.184 L89.961,20.213 C90.033,19.75 90.432,19.41 90.899,19.41 L93.063,19.41 C97.569,19.41 100.168,17.23 100.848,12.91 C101.155,11.02 100.86,9.535 99.975,8.495 C99.004,7.353 97.281,6.749 94.992,6.749 Z M95.781,13.154 C95.408,15.608 93.533,15.608 91.719,15.608 L90.688,15.608 L91.413,11.025 C91.456,10.748 91.694,10.544 91.975,10.544 L92.448,10.544 C93.682,10.544 94.848,10.544 95.45,11.248 C95.809,11.668 95.918,12.292 95.781,13.154 Z" id="Shape" fill="#179BD7"></path>
            <path d="M115.434,13.075 L112.161,13.075 C111.88,13.075 111.641,13.279 111.599,13.556 L111.454,14.472 L111.224,14.14 C110.515,13.111 108.935,12.767 107.357,12.767 C103.738,12.767 100.648,15.508 100.046,19.353 C99.734,21.271 100.177,23.105 101.265,24.384 C102.265,25.56 103.691,26.05 105.39,26.05 C108.306,26.05 109.923,24.175 109.923,24.175 L109.777,25.085 C109.722,25.433 109.99,25.745 110.341,25.745 L113.29,25.745 C113.757,25.745 114.155,25.405 114.228,24.942 L115.999,13.733 C116.053,13.388 115.785,13.075 115.434,13.075 Z M110.869,19.449 C110.555,21.32 109.068,22.576 107.174,22.576 C106.225,22.576 105.463,22.271 104.975,21.693 C104.491,21.119 104.309,20.302 104.461,19.392 C104.758,17.537 106.266,16.24 108.131,16.24 C109.061,16.24 109.817,16.549 110.315,17.132 C110.816,17.721 111.014,18.543 110.869,19.449 Z" id="Shape" fill="#179BD7"></path>
            <path d="M119.295,7.23 L116.488,25.088 C116.433,25.434 116.701,25.746 117.05,25.746 L119.872,25.746 C120.341,25.746 120.739,25.406 120.811,24.943 L123.579,7.407 C123.634,7.061 123.366,6.748 123.017,6.748 L119.857,6.748 C119.578,6.749 119.338,6.953 119.295,7.23 Z" id="Shape" fill="#179BD7"></path>
        </g>
    </g>
</svg>