<?xml version="1.0" encoding="UTF-8" standalone="no"?>
<svg width="24px" height="21px" viewBox="0 0 24 21" version="1.1" xmlns="http://www.w3.org/2000/svg" xmlns:xlink="http://www.w3.org/1999/xlink">
    <!-- Generator: Sketch 39.1 (31720) - http://www.bohemiancoding.com/sketch -->
    <title>Group</title>
    <desc>Created with Sketch.</desc>
    <defs></defs>
    <g id="Page-1" stroke="none" stroke-width="1" fill="none" fill-rule="evenodd">
        <g id="4" transform="translate(-643.000000, -559.000000)" fill="#FFFFFF">
            <g id="Bitmap" transform="translate(325.000000, 370.000000)">
                <g id="arrows-24px-outline-1_cloud-upload-94" transform="translate(318.000000, 189.000000)">
                    <g id="Group">
                        <polygon id="Shape" points="12.75 8 11.25 8 11.25 21 12.75 21"></polygon>
                        <polygon id="Shape" points="12.5303301 8.53033009 11.4696699 8.53033009 14.4696699 11.5303301 15.5303301 10.4696699 12.5303301 7.46966991 12 6.93933983 11.4696699 7.46966991 8.46966991 10.4696699 9.53033009 11.5303301"></polygon>
                        <path d="M19,16.75 C21.6232136,16.75 23.75,14.6232136 23.75,12 C23.75,9.37198459 21.6143755,7.23415345 18.9696502,7.25301908 L19.7233851,7.95380947 C19.4392172,3.63047596 15.8501401,0.25 11.5,0.25 C7.09606812,0.25 3.48093273,3.71283776 3.26887469,8.0997885 L3.83362886,7.40901494 C1.74125666,7.93966277 0.25,9.81750304 0.25,12 C0.25,14.6232136 2.37678644,16.75 5,16.75 L8,16.75 L8,15.25 L5,15.25 C3.20521356,15.25 1.75,13.7947864 1.75,12 C1.75,10.5101304 2.76946569,9.22638512 4.20237114,8.86298506 L4.74032934,8.72655315 L4.76712531,8.1722115 C4.94062837,4.58286694 7.89808644,1.75 11.5,1.75 C15.0579983,1.75 17.9941522,4.51550147 18.2266149,8.05219053 L18.2730087,8.7580266 L18.9803498,8.75298092 C20.7897263,8.74007409 22.25,10.2018566 22.25,12 C22.25,13.7947864 20.7947864,15.25 19,15.25 L16,15.25 L16,16.75 L19,16.75 Z" id="Shape"></path>
                    </g>
                </g>
            </g>
        </g>
    </g>
</svg>