<?xml version="1.0" encoding="utf-8"?>
<!-- Generator: Adobe Illustrator 16.0.0, SVG Export Plug-In . SVG Version: 6.00 Build 0)  -->
<!DOCTYPE svg PUBLIC "-//W3C//DTD SVG 1.1//EN" "http://www.w3.org/Graphics/SVG/1.1/DTD/svg11.dtd">
<svg version="1.1" id="Layer_1" xmlns="http://www.w3.org/2000/svg" xmlns:xlink="http://www.w3.org/1999/xlink" x="0px" y="0px"
	 width="24px" height="24px" viewBox="0 0 24 24" enable-background="new 0 0 24 24" xml:space="preserve">
<title>Group</title>
<desc>Created with Sketch.</desc>
<g id="Page-1">
	<g id="Profile-Copy-6" transform="translate(-1182.000000, -2515.000000)">
		<g id="Group-4" transform="translate(112.000000, 2484.000000)">
			<g id="Group-5">
				<g id="social-24px-glyph-1_logo-instagram" transform="translate(1070.000000, 31.000000)">
					<g id="Group">
						<path id="Shape" fill="#FDFCFF" d="M12,2.162c3.204,0,3.584,0.012,4.85,0.07c1.365,0.062,2.633,0.336,3.607,1.311
							s1.249,2.242,1.311,3.608c0.059,1.265,0.07,1.645,0.07,4.849s-0.012,3.584-0.07,4.85c-0.062,1.365-0.336,2.633-1.311,3.607
							s-2.242,1.249-3.607,1.311c-1.266,0.059-1.646,0.07-4.85,0.07s-3.584-0.012-4.849-0.07c-1.366-0.062-2.633-0.336-3.608-1.311
							s-1.249-2.242-1.311-3.607c-0.058-1.266-0.07-1.646-0.07-4.85s0.012-3.584,0.07-4.849c0.062-1.366,0.336-2.633,1.311-3.608
							s2.242-1.249,3.608-1.311C8.416,2.174,8.796,2.162,12,2.162L12,2.162z M12,0C8.741,0,8.332,0.014,7.052,0.072
							c-1.95,0.089-3.663,0.567-5.038,1.942S0.161,5.102,0.072,7.052C0.014,8.332,0,8.741,0,12s0.014,3.668,0.072,4.948
							c0.089,1.95,0.567,3.663,1.942,5.038s3.088,1.853,5.038,1.941C8.332,23.986,8.741,24,12,24s3.668-0.014,4.948-0.072
							c1.95-0.089,3.663-0.566,5.038-1.941s1.853-3.088,1.941-5.038C23.986,15.668,24,15.259,24,12s-0.014-3.668-0.072-4.948
							c-0.089-1.95-0.566-3.663-1.941-5.038s-3.088-1.853-5.038-1.942C15.668,0.014,15.259,0,12,0L12,0L12,0z"/>
						<path id="Shape_1_" fill="#FDFCFF" d="M12,5.838c-3.403,0-6.162,2.759-6.162,6.162c0,3.402,2.759,6.162,6.162,6.162
							c3.402,0,6.162-2.76,6.162-6.162C18.162,8.597,15.402,5.838,12,5.838L12,5.838z M12,16c-2.209,0-4-1.791-4-4s1.791-4,4-4
							s4,1.791,4,4S14.209,16,12,16L12,16z"/>
						<circle id="Oval" fill="#FDFCFF" cx="18.406" cy="5.594" r="1.44"/>
					</g>
				</g>
			</g>
		</g>
	</g>
</g>
</svg>
