<?xml version="1.0" encoding="utf-8"?>
<!-- Generator: Adobe Illustrator 16.0.0, SVG Export Plug-In . SVG Version: 6.00 Build 0)  -->
<!DOCTYPE svg PUBLIC "-//W3C//DTD SVG 1.1//EN" "http://www.w3.org/Graphics/SVG/1.1/DTD/svg11.dtd">
<svg version="1.1" id="Layer_1" xmlns="http://www.w3.org/2000/svg" xmlns:xlink="http://www.w3.org/1999/xlink" x="0px" y="0px"
	 width="22px" height="25px" viewBox="0 0 22 25" enable-background="new 0 0 22 25" xml:space="preserve">
<title>Group</title>
<desc>Created with Sketch.</desc>
<g id="Symbols">
	<g id="iPad-Nav" transform="translate(-707.000000, -24.000000)">
		<g id="Group-4">
			<g id="Group-5" transform="translate(659.000000, 0.000000)">
				<g id="Group-3" transform="translate(0.000000, 16.000000)">
					<g id="Group-2" transform="translate(50.000000, 0.000000)">
						<g id="ui-24px-outline-1_bell-53" transform="translate(0.000000, 9.000000)">
							<g id="Group">
								<g id="Shape">
									<path fill="#FFFFFF" d="M9,23.75c-2.664,0-4.75-2.087-4.75-4.75h1.5c0,1.853,1.397,3.25,3.25,3.25
										c1.853,0,3.25-1.397,3.25-3.25h1.5C13.75,21.663,11.663,23.75,9,23.75z"/>
								</g>
								<g id="Shape_1_">
									<path fill="#FFFFFF" d="M19.551,16.75H-1.542l0.953-1.214c0.018-0.023,1.839-2.379,1.839-5.431V5.895
										C1.25,2.168,4.654-0.75,9-0.75s7.75,2.918,7.75,6.645v4.211c0,3.071,1.819,5.406,1.838,5.429L19.551,16.75z M1.366,15.25
										h15.268c-0.62-1.132-1.384-2.968-1.384-5.145V5.895C15.25,3.01,12.505,0.75,9,0.75S2.75,3.01,2.75,5.895v4.211
										C2.75,12.282,1.986,14.118,1.366,15.25z"/>
								</g>
							</g>
						</g>
					</g>
				</g>
			</g>
		</g>
	</g>
</g>
</svg>
