<?xml version="1.0" encoding="UTF-8" standalone="no"?>
<svg width="23px" height="23px" viewBox="0 0 23 23" version="1.1" xmlns="http://www.w3.org/2000/svg" xmlns:xlink="http://www.w3.org/1999/xlink">
    <!-- Generator: Sketch 3.8.3 (29802) - http://www.bohemiancoding.com/sketch -->
    <title>Group</title>
    <desc>Created with Sketch.</desc>
    <defs></defs>
    <g id="------" stroke="none" stroke-width="1" fill="none" fill-rule="evenodd">
        <g id="Profile-Copy-6" transform="translate(-358.000000, -1751.000000)" fill="#ABABAB">
            <g id="Group-2" transform="translate(325.000000, 1379.000000)">
                <g id="Group-6" transform="translate(33.000000, 372.000000)">
                    <g id="business-24px-outline_round-dollar">
                        <g id="Group" transform="translate(0.500000, 0.500000)">
                            <path d="M11,21 L11,21 C16.5228475,21 21,16.5228475 21,11 C21,5.4771525 16.5228475,1 11,1 C5.4771525,1 1,5.4771525 1,11 C1,16.5228475 5.4771525,21 11,21 L11,21 Z M11,22 L11,22 C4.92486775,22 0,17.0751322 0,11 C0,4.92486775 4.92486775,0 11,0 C17.0751322,0 22,4.92486775 22,11 C22,17.0751322 17.0751322,22 11,22 L11,22 Z" id="Oval"></path>
                            <path d="M7.5,13.5 C7.5,15.1761424 8.82385763,16.5 10.5,16.5 L11.5,16.5 C13.1761424,16.5 14.5,15.1761424 14.5,13.5 C14.5,11.7169984 13.5810059,11.1298633 11.1212678,10.5149287 C9.08100593,10.0048633 8.5,9.63366505 8.5,8.5 C8.5,7.37614237 9.37614237,6.5 10.5,6.5 L11.5,6.5 C12.6238576,6.5 13.5,7.37614237 13.5,8.5 L14.5,8.5 C14.5,6.82385763 13.1761424,5.5 11.5,5.5 L10.5,5.5 C8.82385763,5.5 7.5,6.82385763 7.5,8.5 C7.5,10.2830016 8.41899407,10.8701367 10.8787322,11.4850713 C12.9189941,11.9951367 13.5,12.366335 13.5,13.5 C13.5,14.6238576 12.6238576,15.5 11.5,15.5 L10.5,15.5 C9.37614237,15.5 8.5,14.6238576 8.5,13.5 L7.5,13.5 L7.5,13.5 Z" id="Shape"></path>
                            <polygon id="Shape" points="10.5 5 10.5 17 11.5 17 11.5 5"></polygon>
                        </g>
                    </g>
                </g>
            </g>
        </g>
    </g>
</svg>