<?xml version="1.0" encoding="utf-8"?>
<!-- Generator: Adobe Illustrator 16.0.0, SVG Export Plug-In . SVG Version: 6.00 Build 0)  -->
<!DOCTYPE svg PUBLIC "-//W3C//DTD SVG 1.1//EN" "http://www.w3.org/Graphics/SVG/1.1/DTD/svg11.dtd">
<svg version="1.1" id="Layer_1" xmlns="http://www.w3.org/2000/svg" xmlns:xlink="http://www.w3.org/1999/xlink" x="0px" y="0px"
	 width="14px" height="24px" viewBox="0 0 14 24" enable-background="new 0 0 14 24" xml:space="preserve">
<title>social-24px-glyph-1_logo-tumblr</title>
<desc>Created with Sketch.</desc>
<g id="Page-1">
	<g id="Profile-Copy-6" transform="translate(-1270.000000, -2515.000000)">
		<g id="Group-4" transform="translate(112.000000, 2484.000000)">
			<g id="Group-5">
				<g id="social-24px-glyph-1_logo-tumblr" transform="translate(1158.000000, 31.000000)">
					<path id="Shape" fill="#FDFCFF" d="M12.7,19.2c-0.4,0.2-1.3,0.399-1.9,0.399C8.9,19.7,8.5,18.3,8.5,17.2V9.7h4.8V6.1H8.5V0H5
						C4.9,0,4.8,0.1,4.8,0.2C4.6,2.1,3.7,5.3,0.1,6.6v3.1h2.4v7.8c0,2.7,2,6.5,7.2,6.4c1.8,0,3.7-0.801,4.2-1.4L12.7,19.2L12.7,19.2
						z"/>
				</g>
			</g>
		</g>
	</g>
</g>
</svg>
