<?xml version="1.0" encoding="UTF-8"?>
<svg width="16px" height="25px" viewBox="0 0 16 25" version="1.1" xmlns="http://www.w3.org/2000/svg" xmlns:xlink="http://www.w3.org/1999/xlink">
    <!-- Generator: Sketch 41.2 (35397) - http://www.bohemiancoding.com/sketch -->
    <title>Group 22</title>
    <desc>Created with Sketch.</desc>
    <defs></defs>
    <g id="Page-1" stroke="none" stroke-width="1" fill="none" fill-rule="evenodd">
        <g id="Offered-iphone" transform="translate(-217.000000, -354.000000)" fill="#BFBFBF">
            <g id="Group-22" transform="translate(217.000000, 354.000000)">
                <path d="M11.6081951,2.92576923 L5.01502439,2.92576923 C4.73873171,2.92576923 4.51512195,2.70538462 4.51512195,2.43307692 C4.51512195,2.16076923 4.73873171,1.94038462 5.01502439,1.94038462 L11.6081951,1.94038462 C11.8840976,1.94038462 12.1080976,2.16076923 12.1080976,2.43307692 C12.1080976,2.70538462 11.8840976,2.92576923 11.6081951,2.92576923" id="Fill-562"></path>
                <path d="M7.99921951,22.6238462 C7.44780488,22.6238462 6.99941463,22.1819231 6.99941463,21.6380769 C6.99941463,21.0946154 7.44780488,20.6526923 7.99921951,20.6526923 C8.55063415,20.6526923 8.99902439,21.0946154 8.99902439,21.6380769 C8.99902439,22.1819231 8.55063415,22.6238462 7.99921951,22.6238462" id="Fill-563"></path>
                <polygon id="Fill-564" points="0.499902439 4.89653846 15.3108293 4.89653846 15.3108293 5.88192308 0.499902439 5.88192308"></polygon>
                <polygon id="Fill-565" points="0.499902439 18.7857692 15.3108293 18.7857692 15.3108293 19.7711538 0.499902439 19.7711538"></polygon>
                <path d="M13.5640976,24.6369231 L2.43473171,24.6369231 C1.09229268,24.6369231 0,23.56 0,22.2369231 L0,2.39923077 C0,1.07615385 1.09229268,0 2.43473171,0 L13.5640976,0 C14.9061463,0 15.998439,1.07615385 15.998439,2.39923077 L15.998439,22.2369231 C15.998439,23.56 14.9061463,24.6369231 13.5640976,24.6369231 L13.5640976,24.6369231 Z M2.43473171,0.985384615 C1.64370732,0.985384615 0.999804878,1.61961538 0.999804878,2.39923077 L0.999804878,22.2369231 C0.999804878,23.0173077 1.64370732,23.6515385 2.43473171,23.6515385 L13.5640976,23.6515385 C14.355122,23.6515385 14.9986341,23.0173077 14.9986341,22.2369231 L14.9986341,2.39923077 C14.9986341,1.61961538 14.355122,0.985384615 13.5640976,0.985384615 L2.43473171,0.985384615 L2.43473171,0.985384615 Z" id="Fill-566"></path>
            </g>
        </g>
    </g>
</svg>