<?xml version="1.0" encoding="UTF-8" standalone="no"?>
<svg width="20px" height="20px" viewBox="0 0 20 20" version="1.1" xmlns="http://www.w3.org/2000/svg" xmlns:xlink="http://www.w3.org/1999/xlink">
    <!-- Generator: Sketch 39.1 (31720) - http://www.bohemiancoding.com/sketch -->
    <title>=</title>
    <desc>Created with Sketch.</desc>
    <defs></defs>
    <g id="Page-1" stroke="none" stroke-width="1" fill="none" fill-rule="evenodd">
        <path d="M13.089236,9.91755518 L11.1876401,9.91755518 L11.1876401,16.9304924 L8.30658744,16.9304924 L8.30658744,9.96353141 L6.73870968,9.96353141 L6.73870968,7.5434635 L8.25952462,7.5434635 C8.25952462,6.82780985 8.26594228,6.19191851 8.25952462,5.52794567 C8.25952462,3.62237691 9.72173175,3.06947368 11.0363328,3.06947368 L13.2515789,3.06947368 L13.2526655,3.06947368 L13.2526655,5.46006791 C13.0665535,5.4611545 12.341562,5.46006791 11.9686927,5.46006791 C11.921562,5.46006791 11.1379966,5.41694397 11.1379966,6.16998302 C11.1427504,6.47755518 11.1379966,7.53667233 11.1379966,7.53667233 L13.2612903,7.53667233 L13.089236,9.91755518 Z M10,0 C4.47714771,0 0,4.47714771 0,10 C0,15.5228523 4.47714771,20 10,20 C15.5228523,20 20,15.5228523 20,10 C20,4.47714771 15.5228523,0 10,0 L10,0 Z" fill="#3B5998"></path>
    </g>
</svg>