<?xml version="1.0" encoding="UTF-8" standalone="no"?>
<svg width="66px" height="17px" viewBox="0 0 66 17" version="1.1" xmlns="http://www.w3.org/2000/svg" xmlns:xlink="http://www.w3.org/1999/xlink">
    <!-- Generator: Sketch 41.1 (35376) - http://www.bohemiancoding.com/sketch -->
    <title>_x34__x5F_COL_x5F_SQ</title>
    <desc>Created with Sketch.</desc>
    <defs></defs>
    <g id="Page-1" stroke="none" stroke-width="1" fill="none" fill-rule="evenodd">
        <g id="_x34__x5F_COL_x5F_SQ" fill="#008BB6">
            <g id="Express" transform="translate(14.602077, 8.642857)">
                <path d="M26.9398922,7.76653073 L26.9398922,6.27510466 C26.9398922,6.27510466 26.8581548,5.10790164 25.6023722,5.10790164 L23.6510791,5.10790164 L23.6510791,7.76653073 L21.643313,7.76653073 L21.643313,0.101897589 L26.5118858,0.101897589 C26.5118858,0.101897589 29.0531737,-0.196387627 29.0531737,2.34552117 C29.0531737,3.66835125 27.9296569,4.13523246 27.9296569,4.13523246 C27.9296569,4.13523246 28.8926713,4.57617582 28.8926713,5.87162708 L28.8926713,7.76508977 L26.9398922,7.76508977 M23.649593,3.30522143 L25.7242351,3.30522143 C26.324633,3.30522143 26.8195154,2.98099837 26.8195154,2.57896177 C26.8195154,2.17692517 26.324633,1.85270211 25.7242351,1.85270211 L23.649593,1.85270211 L23.649593,3.30522143" id="SVGID_17_"></path>
                <path d="M13.5646923,7.77728334 L11.8125411,7.77728334 L9.68588433,5.50772193 L7.5458524,7.77728334 L6.32870919,7.77728334 L0.0824908647,7.77728334 L0.0824908647,0.0996812791 L6.32870919,0.0996812791 L7.38534998,0.0996812791 L9.68588433,2.53783869 L11.999794,0.112650201 L13.5379419,0.112650201 L13.5379419,0.0996812791 L18.4065147,0.0996812791 C18.4065147,0.0996812791 20.9478026,-0.172666092 20.9478026,2.35483279 C20.9478026,4.61142529 20.1051651,5.31318809 17.5103763,5.31318809 L15.5442219,5.31318809 L15.5442219,7.77728334 L13.5646923,7.77728334 M11.0501547,4.00476792 L13.5379419,6.67636593 L13.5379419,1.34613882 L11.0501547,4.00476792 M2.10214605,6.11870227 L6.32870919,6.11870227 L8.30823874,4.00476792 L6.32870919,1.9023615 L2.10214605,1.9023615 L2.10214605,3.08109244 L6.2217076,3.08109244 L6.2217076,4.82036904 L2.10214605,4.82036904 L2.10214605,6.11870227 M15.5442219,3.31597404 L17.6173779,3.31597404 C18.2192619,3.31597404 18.7141443,2.99175098 18.7141443,2.58971438 C18.7141443,2.18911878 18.2192619,1.86345473 17.6173779,1.86345473 L15.5442219,1.86345473 L15.5442219,3.31597404" id="SVGID_20_"></path>
                <path d="M40.6227216,7.74427807 L37.0515432,7.74427807 L37.0515432,5.97906361 L40.18134,5.97906361 C40.18134,5.97906361 41.3048568,6.10875284 41.3048568,5.37096526 C41.3048568,4.68073038 39.6062065,4.73548805 39.6062065,4.73548805 C39.6062065,4.73548805 36.8375401,4.96892866 36.8375401,2.45295771 C36.8375401,-0.0500443176 39.3387025,0.0926138291 39.3387025,0.0926138291 L43.1922461,0.0926138291 L43.1922461,1.88232512 L40.0891998,1.88232512 C40.0891998,1.88232512 39.0176976,1.67338137 39.0176976,2.42846085 C39.0176976,3.06105607 40.4741083,2.97171461 40.4741083,2.97171461 C40.4741083,2.97171461 43.5385152,2.75268392 43.5385152,5.05971112 C43.5385152,7.5353343 41.5649302,7.75436497 40.8649613,7.75436497 C40.7148619,7.75292401 40.6227216,7.74427807 40.6227216,7.74427807" id="SVGID_23_"></path>
                <polyline id="SVGID_26_" points="29.8824362 7.74278436 29.8824362 0.0911201232 36.1405436 0.0911201232 36.1405436 1.8678625 31.9020913 1.8678625 31.9020913 3.04803443 36.035028 3.04803443 36.035028 4.78731103 31.9020913 4.78731103 31.9020913 6.08420327 36.1405436 6.08420327 36.1405436 7.74278436 29.8824362 7.74278436"></polyline>
                <path d="M47.6982024,7.74427807 L44.127024,7.74427807 L44.127024,5.97906361 L47.2449317,5.97906361 C47.2449317,5.97906361 48.3818237,6.10875284 48.3818237,5.37096526 C48.3818237,4.68073038 46.6831733,4.73548805 46.6831733,4.73548805 C46.6831733,4.73548805 43.9145069,4.96892866 43.9145069,2.45295771 C43.9145069,-0.0500443176 46.4156693,0.0926138291 46.4156693,0.0926138291 L50.2558378,0.0926138291 L50.2558378,1.88232512 L47.1646805,1.88232512 C47.1646805,1.88232512 46.0946645,1.67338137 46.0946645,2.42846085 C46.0946645,3.06105607 47.5525612,2.97171461 47.5525612,2.97171461 C47.5525612,2.97171461 50.615482,2.75268392 50.615482,5.05971112 C50.615482,7.5353343 48.641897,7.75436497 47.9419282,7.75436497 C47.7888565,7.75292401 47.6982024,7.74427807 47.6982024,7.74427807" id="SVGID_29_"></path>
            </g>
            <g id="American" transform="translate(0.374412, 0.375776)">
                <path d="M33.9313959,7.80898654 L33.9313959,6.3175605 C33.9313959,6.3175605 33.8496585,5.15035748 32.5938759,5.15035748 L30.6410967,5.15035748 L30.6410967,7.80898654 L28.6348168,7.80898654 L28.6348168,0.145794422 L33.5033895,0.145794422 C33.5033895,0.145794422 36.0446775,-0.152490793 36.0446775,2.389418 C36.0446775,3.71224809 34.9211607,4.17912929 34.9211607,4.17912929 C34.9211607,4.17912929 35.8960641,4.62151364 35.8960641,5.91840589 L35.8960641,7.81042757 L33.9313959,7.81042757 M30.6410967,3.34767727 L32.7142527,3.34767727 C33.3161367,3.34767727 33.8110191,3.02345421 33.8110191,2.62141761 C33.8110191,2.21938102 33.3161367,1.89515795 32.7142527,1.89515795 L30.6410967,1.89515795 L30.6410967,3.34767727" id="SVGID_2_"></path>
                <path d="M57.6054996,7.80898654 L54.422202,2.68626222 L54.422202,7.80898654 L52.6968013,7.80898654 L52.3743103,7.80898654 L50.4898933,7.80898654 L49.7795216,6.2008402 L46.1147168,6.2008402 L45.4177203,7.80898654 L43.5719427,7.80898654 L43.2375627,7.80898654 L42.2745483,7.80898654 C42.2745483,7.80898654 39.5742441,7.43288783 39.5742441,4.19065723 C39.5742441,-0.0631493281 42.638651,0.105446663 42.7441665,0.0795088182 L45.2185785,0.144353431 L45.2185785,1.86922012 L43.1870342,1.89515795 C43.1870342,1.89515795 41.8614033,1.89515795 41.7009009,3.56958994 C41.6815811,3.76124179 41.6726644,3.93848374 41.6741505,4.10275675 C41.6815811,6.69365925 43.9940046,5.88958606 44.0683113,5.86508921 L46.5560985,0.145794422 L49.3648904,0.145794422 L52.3728242,7.09713683 L52.3728242,0.145794422 L55.2083666,0.145794422 L58.3515385,5.19070524 L58.3515385,0.145794422 L60.3711937,0.145794422 L60.3711937,7.80898654 L57.6054996,7.80898654 M46.9722158,4.24253291 L48.9235088,4.24253291 L47.9619806,1.96000257 L46.9722158,4.24253291" id="SVGID_5_"></path>
                <path d="M17.9093926,7.84543588 L17.9093926,2.55555653 L15.394855,7.84543588 L13.7497054,7.84543588 L11.2217927,2.58005338 L11.2217927,7.84543588 L9.4696415,7.84543588 L9.20213752,7.84543588 L7.26273352,7.84543588 L6.56722313,6.2372895 L2.90241837,6.2372895 L2.19353278,7.84543588 L0,7.84543588 L3.33042476,0.182243722 L6.15259193,0.182243722 L9.20213752,7.2243686 L9.20213752,0.182243722 L12.3720598,0.182243722 L14.5789679,4.94183825 L16.7725006,0.182243722 L19.942423,0.182243722 L19.942423,7.84543588 L17.9093926,7.84543588 M3.75843116,4.27898221 L5.71121034,4.27898221 L4.73482075,1.99645187 L3.75843116,4.27898221" id="SVGID_8_"></path>
                <polygon id="SVGID_11_" points="21.3319577 0.145794422 27.5915512 0.145794422 27.5915512 1.93406472 23.3516128 1.93406472 23.3516128 3.11423667 27.4845495 3.11423667 27.4845495 4.85207227 23.3516128 4.85207227 23.3516128 6.1504055 27.5915512 6.1504055 27.5915512 7.80898654 21.3319577 7.80898654"></polygon>
                <polyline id="SVGID_14_" points="36.8739399 7.83492444 36.8739399 0.145794422 38.8935951 0.145794422 38.8935951 7.83492444 36.8739399 7.83492444"></polyline>
            </g>
        </g>
    </g>
</svg>