<?xml version="1.0" encoding="UTF-8" standalone="no"?>
<svg width="22px" height="27px" viewBox="0 0 22 27" version="1.1" xmlns="http://www.w3.org/2000/svg" xmlns:xlink="http://www.w3.org/1999/xlink">
    <!-- Generator: Sketch 40.3 (33839) - http://www.bohemiancoding.com/sketch -->
    <title>Combined Shape</title>
    <desc>Created with Sketch.</desc>
    <defs></defs>
    <g id="Page-1" stroke="none" stroke-width="1" fill="none" fill-rule="evenodd">
        <g id="Homepage--without-hovers-" transform="translate(-556.000000, -2702.000000)" fill="#FFFFFF">
            <g id="2" transform="translate(535.000000, 2685.000000)">
                <g id="lock-icon" transform="translate(21.000000, 17.000000)">
                    <path d="M18.101141,11.3224243 L17.2286997,11.3224243 L17.2286997,6.64296629 C17.2286997,3.02101295 14.2676867,0.06 10.6457334,0.06 C7.02378006,0.06 4.06276711,3.02101295 4.06276711,6.64296629 L4.06276711,11.2959866 L3.1903258,11.2959866 C1.4983184,11.2959866 0.15,12.6707427 0.15,14.3363124 L0.15,23.1929137 C0.15,24.8849211 1.52475601,26.2332395 3.1903258,26.2332395 L18.101141,26.2332395 C19.7931484,26.2332395 21.1414668,24.8584835 21.1414668,23.1929137 L21.1414668,14.3627501 C21.1414668,12.6707427 19.7931484,11.3224243 18.101141,11.3224243 L18.101141,11.3224243 Z M5.67546167,6.64296629 C5.67546167,3.91989188 7.89622138,1.67269455 10.6457334,1.67269455 C13.3952454,1.67269455 15.6160051,3.89345427 15.6160051,6.64296629 L15.6160051,11.2959866 L5.67546167,11.2959866 L5.67546167,6.64296629 L5.67546167,6.64296629 Z M19.5287723,23.2193513 C19.5287723,24.0124798 18.8942695,24.6469825 18.101141,24.6469825 L3.16388818,24.6469825 C2.37075971,24.6469825 1.73625694,24.0124798 1.73625694,23.2193513 L1.73625694,14.3627501 C1.73625694,13.5696216 2.37075971,12.9351188 3.16388818,12.9351188 L18.0747034,12.9351188 C18.8678319,12.9351188 19.5023346,13.5696216 19.5023346,14.3627501 L19.5023346,23.2193513 L19.5287723,23.2193513 Z M10.9365472,16.5570722 C9.4560407,16.5570722 8.266348,17.7467649 8.266348,19.2272713 C8.266348,20.7077778 9.4560407,21.8974705 10.9365472,21.8974705 C12.4170537,21.8974705 13.6067464,20.7077778 13.6067464,19.2272713 C13.6067464,17.7467649 12.4170537,16.5570722 10.9365472,16.5570722 L10.9365472,16.5570722 Z M10.9365472,20.2583383 C10.3549196,20.2583383 9.90548017,19.7824613 9.90548017,19.2272713 C9.90548017,18.6456438 10.3813572,18.1962043 10.9365472,18.1962043 C11.5181747,18.1962043 11.9676142,18.6720814 11.9676142,19.2272713 C11.9676142,19.7824613 11.5181747,20.2583383 10.9365472,20.2583383 L10.9365472,20.2583383 Z" id="Combined-Shape"></path>
                </g>
            </g>
        </g>
    </g>
</svg>