<?xml version="1.0" encoding="UTF-8" standalone="no"?>
<svg width="14px" height="15px" viewBox="0 0 14 15" version="1.1" xmlns="http://www.w3.org/2000/svg" xmlns:xlink="http://www.w3.org/1999/xlink">
    <!-- Generator: Sketch 39.1 (31720) - http://www.bohemiancoding.com/sketch -->
    <title>Slice</title>
    <desc>Created with Sketch.</desc>
    <defs></defs>
    <g id="Page-1" stroke="none" stroke-width="1" fill="none" fill-rule="evenodd">
        <path d="M12.3484943,8.09052632 C12.3772798,7.85473684 12.3988689,7.61894737 12.3988689,7.36842105 C12.3988689,7.11789474 12.3772798,6.88210526 12.3484943,6.64631579 L13.8669289,5.43052632 C14.00366,5.32 14.0396419,5.12105263 13.9532854,4.95894737 L12.5140109,2.40947368 C12.4276544,2.24736842 12.2333523,2.18842105 12.0750321,2.24736842 L10.2831354,2.98421053 C9.90892401,2.68947368 9.50592714,2.44631579 9.06694842,2.26210526 L8.79348626,0.309473684 C8.77189714,0.132631579 8.62077332,0 8.44086401,0 L5.56231498,0 C5.38240567,0 5.23128185,0.132631579 5.20969273,0.309473684 L4.93623057,2.26210526 C4.49725185,2.44631579 4.09425498,2.69684211 3.72004361,2.98421053 L1.92814684,2.24736842 C1.76263027,2.18105263 1.57552459,2.24736842 1.48916812,2.40947368 L0.0498936052,4.95894737 C-0.0436592381,5.12105263 -0.000481002712,5.32 0.136250076,5.43052632 L1.65468469,6.64631579 C1.6258992,6.88210526 1.60431008,7.12526316 1.60431008,7.36842105 C1.60431008,7.61157895 1.6258992,7.85473684 1.65468469,8.09052632 L0.136250076,9.30631579 C-0.000481002712,9.41684211 -0.0364628655,9.61578947 0.0498936052,9.77789474 L1.48916812,12.3273684 C1.57552459,12.4894737 1.76982665,12.5484211 1.92814684,12.4894737 L3.72004361,11.7526316 C4.09425498,12.0473684 4.49725185,12.2905263 4.93623057,12.4747368 L5.20969273,14.4273684 C5.23128185,14.6042105 5.38240567,14.7368421 5.56231498,14.7368421 L8.44086401,14.7368421 C8.62077332,14.7368421 8.77189714,14.6042105 8.79348626,14.4273684 L9.06694842,12.4747368 C9.50592714,12.2905263 9.90892401,12.04 10.2831354,11.7526316 L12.0750321,12.4894737 C12.2405487,12.5557895 12.4276544,12.4894737 12.5140109,12.3273684 L13.9532854,9.77789474 C14.0396419,9.61578947 14.00366,9.41684211 13.8669289,9.30631579 L12.3484943,8.09052632 L12.3484943,8.09052632 Z M7.0015895,9.94736842 C5.61268959,9.94736842 4.4828591,8.79052632 4.4828591,7.36842105 C4.4828591,5.94631579 5.61268959,4.78947368 7.0015895,4.78947368 C8.3904894,4.78947368 9.52031989,5.94631579 9.52031989,7.36842105 C9.52031989,8.79052632 8.3904894,9.94736842 7.0015895,9.94736842 L7.0015895,9.94736842 Z" id="Shape" fill="#4A4A4A"></path>
    </g>
</svg>