<?xml version="1.0" encoding="UTF-8" standalone="no"?>
<svg width="20px" height="20px" viewBox="0 0 20 20" version="1.1" xmlns="http://www.w3.org/2000/svg" xmlns:xlink="http://www.w3.org/1999/xlink">
    <!-- Generator: Sketch 3.8.3 (29802) - http://www.bohemiancoding.com/sketch -->
    <title>Group</title>
    <desc>Created with Sketch.</desc>
    <defs></defs>
    <g id="------" stroke="none" stroke-width="1" fill="none" fill-rule="evenodd">
        <g id="Profile-Copy-6" transform="translate(-359.000000, -1817.000000)" fill="#ABABAB">
            <g id="Group-2" transform="translate(325.000000, 1379.000000)">
                <g id="Group-6" transform="translate(33.000000, 372.000000)">
                    <g id="Group" transform="translate(1.000000, 66.000000)">
                        <path d="M10.6060432,0.79543172 L10.6060432,0.79543172 L0.606043215,8.41447934 L1,7.61904762 L1,20 L0,19 L6.66666667,19 L13.333333,19 L20,19 L19,20 L19,7.61904762 L19.3939568,8.41447934 L9.39395678,0.79543172 L10.6060432,0.79543172 Z M10,0 L10,0 L20,7.61904762 L20,20 L13.333333,20 L6.66666667,20 L0,20 L0,7.61904762 L10,0 Z" id="Shape"></path>
                        <path d="M7,13 L7,13 L8,12 L8,20 L7,19 L13,19 L12,20 L12,12 L13,13 L7,13 Z M7,12 L13,12 L13,20 L7,20 L7,12 L7,12 Z" id="Rectangle-329"></path>
                    </g>
                </g>
            </g>
        </g>
    </g>
</svg>