<?xml version="1.0" encoding="UTF-8" standalone="no"?>
<svg width="52px" height="43px" viewBox="0 0 52 43" version="1.1" xmlns="http://www.w3.org/2000/svg" xmlns:xlink="http://www.w3.org/1999/xlink">
    <!-- Generator: Sketch 41.1 (35376) - http://www.bohemiancoding.com/sketch -->
    <title>Shape</title>
    <desc>Created with Sketch.</desc>
    <defs></defs>
    <g id="Page-1" stroke="none" stroke-width="1" fill="none" fill-rule="evenodd">
        <path d="M52,4.98333333 C50.05,5.85 48.1,6.5 45.9333333,6.71666667 C48.1,5.41666667 49.8333333,3.25 50.7,0.866666667 C48.5333333,2.16666667 46.3666667,3.03333333 43.9833333,3.46666667 C42.0333333,1.3 39.2166667,0 36.1833333,0 C30.3333333,0 25.5666667,4.76666667 25.5666667,10.6166667 C25.5666667,11.4833333 25.5666667,12.35 25.7833333,13 C16.6833333,12.5666667 8.88333333,8.23333333 3.68333333,1.73333333 C2.6,3.46666667 2.16666667,5.2 2.16666667,7.15 C2.16666667,10.8333333 4.11666667,14.0833333 6.93333333,16.0333333 C5.2,16.0333333 3.46666667,15.6 2.16666667,14.7333333 C2.16666667,14.7333333 2.16666667,14.7333333 2.16666667,14.95 C2.16666667,20.15 5.85,24.4833333 10.6166667,25.35 C9.75,25.5666667 8.88333333,25.7833333 7.8,25.7833333 C7.15,25.7833333 6.5,25.7833333 5.85,25.5666667 C7.15,29.9 11.05,32.9333333 15.8166667,32.9333333 C12.1333333,35.75 7.58333333,37.4833333 2.6,37.4833333 C1.73333333,37.4833333 0.866666667,37.4833333 0,37.2666667 C4.76666667,40.3 10.4,42.0333333 16.25,42.0333333 C35.9666667,42.0333333 46.5833333,25.7833333 46.5833333,11.7 L46.5833333,10.4 C48.75,8.88333333 50.4833333,6.93333333 52,4.98333333 L52,4.98333333 Z" id="Shape" fill="#BFBFBF"></path>
    </g>
</svg>