<?xml version="1.0" encoding="UTF-8" standalone="no"?>
<svg width="13px" height="11px" viewBox="0 0 13 11" version="1.1" xmlns="http://www.w3.org/2000/svg" xmlns:xlink="http://www.w3.org/1999/xlink">
    <!-- Generator: Sketch 40.3 (33839) - http://www.bohemiancoding.com/sketch -->
    <title>Shape</title>
    <desc>Created with Sketch.</desc>
    <defs></defs>
    <g id="Page-1" stroke="none" stroke-width="1" fill="none" fill-rule="evenodd">
        <path d="M12.5346144,4.77362464 L1.58436431,4.77362464 L5.56751777,0.790471177 C5.74545933,0.612529613 5.74545933,0.311397736 5.56751777,0.133456173 L5.56751777,0.133456173 C5.3895762,-0.0444853909 5.08844433,-0.0444853909 4.91050276,0.133456173 L0.133456173,4.91050276 C-0.0444853909,5.08844433 -0.0444853909,5.3895762 0.133456173,5.56751777 L4.91050276,10.3445644 C5.08844433,10.5225059 5.3895762,10.5225059 5.56751777,10.3445644 L5.56751777,10.3445644 C5.74545933,10.1666228 5.74545933,9.86549092 5.56751777,9.68754936 L1.58436431,5.69070808 L12.5346144,5.69070808 C12.7946828,5.69070808 13,5.48539089 13,5.22532245 L13,5.22532245 C13,4.97894183 12.7946828,4.77362464 12.5346144,4.77362464 L12.5346144,4.77362464 Z" id="Shape" fill="#474747"></path>
    </g>
</svg>