<?xml version="1.0" encoding="UTF-8" standalone="no"?>
<svg width="50px" height="33px" viewBox="0 0 50 33" version="1.1" xmlns="http://www.w3.org/2000/svg" xmlns:xlink="http://www.w3.org/1999/xlink">
    <!-- Generator: Sketch 41.1 (35376) - http://www.bohemiancoding.com/sketch -->
    <title>Layer_1</title>
    <desc>Created with Sketch.</desc>
    <defs></defs>
    <g id="Page-1" stroke="none" stroke-width="1" fill="none" fill-rule="evenodd">
        <g id="Layer_1">
            <g id="Group">
                <rect id="Rectangle-path" fill="#FFFFFF" x="0.470689655" y="0.785714286" width="49.187069" height="31.4285714"></rect>
                <path d="M49.7362069,0.628571429 L0.313793103,0.628571429 L0.313793103,32.3714286 L49.8931034,32.3714286 L49.8931034,0.628571429 L49.7362069,0.628571429 Z M49.5008621,0.942857143 L49.5008621,31.9785714 L0.627586207,31.9785714 L0.627586207,0.942857143 C1.01982759,1.02142857 49.187069,0.942857143 49.5008621,0.942857143 Z" id="Shape" fill="#231F20"></path>
                <path d="M49.5008621,18.2285714 C49.5008621,18.2285714 36.0862069,27.7357143 11.4534483,31.9785714 L49.5008621,31.9785714 L49.5008621,18.2285714 Z" id="Shape" fill="#F58220"></path>
                <g transform="translate(3.137931, 9.428571)">
                    <path d="M23.1422414,0.314285714 C21.1025862,0.314285714 19.4551724,1.88571429 19.4551724,3.85 C19.4551724,5.89285714 21.0241379,7.46428571 23.1422414,7.46428571 C25.1818966,7.46428571 26.8293103,5.89285714 26.8293103,3.85 C26.7508621,1.88571429 25.1818966,0.314285714 23.1422414,0.314285714 Z" id="Shape" fill="#F58220"></path>
                    <path d="M2.35344828,0.471428571 L0.392241379,0.471428571 L0.392241379,7.30714286 L2.35344828,7.30714286 C3.37327586,7.30714286 4.15775862,7.07142857 4.78534483,6.52142857 C5.56982759,5.89285714 6.04051724,4.87142857 6.04051724,3.85 C6.04051724,1.88571429 4.55,0.471428571 2.35344828,0.471428571 Z M3.92241379,5.57857143 C3.53017241,5.97142857 2.98103448,6.12857143 2.11810345,6.12857143 L1.72586207,6.12857143 L1.72586207,1.57142857 L2.11810345,1.57142857 C2.98103448,1.57142857 3.53017241,1.72857143 3.92241379,2.12142857 C4.39310345,2.51428571 4.62844828,3.14285714 4.62844828,3.85 C4.70689655,4.55714286 4.39310345,5.18571429 3.92241379,5.57857143 Z" id="Shape" fill="#001722"></path>
                    <rect id="Rectangle-path" fill="#001722" x="6.66810345" y="0.471428571" width="1.33362069" height="6.83571429"></rect>
                    <path d="M11.2965517,3.06428571 C10.512069,2.75 10.2767241,2.59285714 10.2767241,2.2 C10.2767241,1.72857143 10.6689655,1.41428571 11.2965517,1.41428571 C11.6887931,1.41428571 12.0025862,1.57142857 12.3948276,1.96428571 L13.1008621,1.02142857 C12.5517241,0.55 11.8456897,0.235714286 11.0612069,0.235714286 C9.88448276,0.235714286 8.94310345,1.1 8.94310345,2.2 C8.94310345,3.14285714 9.4137931,3.61428571 10.6689655,4.08571429 C11.2181034,4.24285714 11.4534483,4.4 11.6103448,4.47857143 C11.8456897,4.63571429 12.0025862,4.87142857 12.0025862,5.18571429 C12.0025862,5.73571429 11.5318966,6.12857143 10.9827586,6.12857143 C10.3551724,6.12857143 9.80603448,5.81428571 9.49224138,5.18571429 L8.62931034,6.05 C9.25689655,6.99285714 9.96293103,7.38571429 10.9827586,7.38571429 C12.3948276,7.38571429 13.3362069,6.44285714 13.3362069,5.10714286 C13.2577586,4.16428571 12.787069,3.61428571 11.2965517,3.06428571 Z" id="Shape" fill="#001722"></path>
                    <path d="M13.65,3.85 C13.65,5.89285714 15.2189655,7.46428571 17.2586207,7.46428571 C17.8077586,7.46428571 18.3568966,7.38571429 18.9060345,7.07142857 L18.9060345,5.5 C18.3568966,6.05 17.8862069,6.28571429 17.2586207,6.28571429 C15.925,6.28571429 14.9836207,5.34285714 14.9836207,3.92857143 C14.9836207,2.59285714 16.0034483,1.57142857 17.2586207,1.57142857 C17.8862069,1.57142857 18.3568966,1.80714286 18.9060345,2.35714286 L18.9060345,0.785714286 C18.3568966,0.471428571 17.8077586,0.392857143 17.2586207,0.392857143 C15.2974138,0.314285714 13.65,1.88571429 13.65,3.85 Z" id="Shape" fill="#001722"></path>
                    <polygon id="Shape" fill="#001722" points="29.8103448 5.02857143 28.0060345 0.471428571 26.5155172 0.471428571 29.4181034 7.46428571 30.1241379 7.46428571 33.1051724 0.471428571 31.6931034 0.471428571"></polygon>
                    <polygon id="Shape" fill="#001722" points="33.7327586 7.30714286 37.4982759 7.30714286 37.4982759 6.12857143 35.0663793 6.12857143 35.0663793 4.32142857 37.4198276 4.32142857 37.4198276 3.14285714 35.0663793 3.14285714 35.0663793 1.57142857 37.4982759 1.57142857 37.4982759 0.471428571 33.7327586 0.471428571"></polygon>
                    <path d="M42.8327586,2.43571429 C42.8327586,1.17857143 41.9698276,0.392857143 40.4008621,0.392857143 L38.4396552,0.392857143 L38.4396552,7.22857143 L39.7732759,7.22857143 L39.7732759,4.47857143 L39.9301724,4.47857143 L41.812931,7.22857143 L43.4603448,7.22857143 L41.2637931,4.32142857 C42.2836207,4.24285714 42.8327586,3.53571429 42.8327586,2.43571429 Z M40.1655172,3.61428571 L39.7732759,3.61428571 L39.7732759,1.49285714 L40.1655172,1.49285714 C41.0284483,1.49285714 41.4206897,1.80714286 41.4206897,2.51428571 C41.4206897,3.22142857 41.0284483,3.61428571 40.1655172,3.61428571 Z" id="Shape" fill="#001722"></path>
                    <path d="M43.7741379,0.942857143 C43.7741379,0.785714286 43.6956897,0.785714286 43.5387931,0.785714286 L43.3818966,0.785714286 L43.3818966,1.41428571 L43.5387931,1.41428571 L43.5387931,1.17857143 L43.6956897,1.41428571 L43.8525862,1.41428571 L43.6172414,1.17857143 C43.6956897,1.1 43.7741379,1.02142857 43.7741379,0.942857143 Z M43.5387931,1.02142857 L43.5387931,1.02142857 L43.5387931,0.864285714 L43.5387931,0.864285714 C43.6172414,0.864285714 43.6172414,0.864285714 43.6172414,0.942857143 C43.6172414,1.02142857 43.6172414,1.02142857 43.5387931,1.02142857 Z" id="Shape" fill="#231F20"></path>
                    <path d="M43.5387931,0.55 C43.225,0.55 42.9896552,0.785714286 42.9896552,1.1 C42.9896552,1.41428571 43.225,1.65 43.5387931,1.65 C43.8525862,1.65 44.087931,1.41428571 44.087931,1.1 C44.087931,0.785714286 43.8525862,0.55 43.5387931,0.55 Z M43.5387931,1.49285714 C43.3034483,1.49285714 43.1465517,1.33571429 43.1465517,1.02142857 C43.1465517,0.785714286 43.3034483,0.55 43.5387931,0.55 C43.7741379,0.55 43.9310345,0.707142857 43.9310345,1.02142857 C44.0094828,1.33571429 43.7741379,1.49285714 43.5387931,1.49285714 Z" id="Shape" fill="#231F20"></path>
                </g>
            </g>
        </g>
    </g>
</svg>