<?xml version="1.0" encoding="UTF-8" standalone="no"?>
<svg width="20px" height="27px" viewBox="0 0 20 27" version="1.1" xmlns="http://www.w3.org/2000/svg" xmlns:xlink="http://www.w3.org/1999/xlink">
    <!-- Generator: Sketch 40.3 (33839) - http://www.bohemiancoding.com/sketch -->
    <title>Combined Shape</title>
    <desc>Created with Sketch.</desc>
    <defs></defs>
    <g id="Page-1" stroke="none" stroke-width="1" fill="none" fill-rule="evenodd">
        <g id="Homepage--without-hovers-" transform="translate(-987.000000, -2702.000000)" fill="#FFFFFF">
            <g id="3" transform="translate(965.000000, 2685.000000)">
                <g id="Group" transform="translate(22.000000, 17.000000)">
                    <path d="M7.08333333,27 L4.58333333,27 C3.435,27 2.5,26.0541563 2.5,24.890625 L2.5,18.984375 C2.5,18.7523438 2.31333333,18.5625 2.08333333,18.5625 C0.935,18.5625 0,17.6166563 0,16.453125 L0,9.703125 C0,8.5404375 0.935,7.59375 2.08333333,7.59375 L9.58333333,7.59375 C10.7316667,7.59375 11.6666667,8.5404375 11.6666667,9.703125 L11.6666667,16.453125 C11.6666667,17.6166563 10.7316667,18.5625 9.58333333,18.5625 C9.35333333,18.5625 9.16666667,18.7523438 9.16666667,18.984375 L9.16666667,24.890625 C9.16666667,26.0541563 8.23166667,27 7.08333333,27 L7.08333333,27 Z M2.08333333,9.28125 C1.85333333,9.28125 1.66666667,9.47025 1.66666667,9.703125 L1.66666667,16.453125 C1.66666667,16.6851562 1.85333333,16.875 2.08333333,16.875 C3.23166667,16.875 4.16666667,17.8208438 4.16666667,18.984375 L4.16666667,24.890625 C4.16666667,25.1226562 4.35333333,25.3125 4.58333333,25.3125 L7.08333333,25.3125 C7.31333333,25.3125 7.5,25.1226562 7.5,24.890625 L7.5,18.984375 C7.5,17.8208438 8.435,16.875 9.58333333,16.875 C9.81333333,16.875 10,16.6851562 10,16.453125 L10,9.703125 C10,9.47025 9.81333333,9.28125 9.58333333,9.28125 L2.08333333,9.28125 Z M5.83333333,6.75 C3.995,6.75 2.5,5.2363125 2.5,3.375 C2.5,1.5136875 3.995,0 5.83333333,0 C7.67166667,0 9.16666667,1.5136875 9.16666667,3.375 C9.16666667,5.2363125 7.67166667,6.75 5.83333333,6.75 Z M5.83333333,1.6875 C4.91416667,1.6875 4.16666667,2.44434375 4.16666667,3.375 C4.16666667,4.30565625 4.91416667,5.0625 5.83333333,5.0625 C6.7525,5.0625 7.5,4.30565625 7.5,3.375 C7.5,2.44434375 6.7525,1.6875 5.83333333,1.6875 Z M15.4166667,27 L12.9166667,27 C11.7675,27 10.8333333,26.0541563 10.8333333,24.890625 L10.8333333,21.09375 C10.8333333,20.6271562 11.2058333,20.25 11.6666667,20.25 C12.1275,20.25 12.5,20.6271562 12.5,21.09375 L12.5,24.890625 C12.5,25.1226562 12.6875,25.3125 12.9166667,25.3125 L15.4166667,25.3125 C15.6458333,25.3125 15.8333333,25.1226562 15.8333333,24.890625 L15.8333333,18.984375 C15.8333333,17.8208437 16.7675,16.875 17.9166667,16.875 C18.1458333,16.875 18.3333333,16.6851562 18.3333333,16.453125 L18.3333333,9.703125 C18.3333333,9.47025 18.1458333,9.28125 17.9166667,9.28125 L14.1666667,9.28125 C13.7058333,9.28125 13.3333333,8.90325 13.3333333,8.4375 C13.3333333,7.97175 13.7058333,7.59375 14.1666667,7.59375 L17.9166667,7.59375 C19.0658333,7.59375 20,8.5404375 20,9.703125 L20,16.453125 C20,17.6166563 19.0658333,18.5625 17.9166667,18.5625 C17.6875,18.5625 17.5,18.7523438 17.5,18.984375 L17.5,24.890625 C17.5,26.0541563 16.5658333,27 15.4166667,27 Z M14.1666667,6.75 C12.3283333,6.75 10.8333333,5.2363125 10.8333333,3.375 C10.8333333,1.5136875 12.3283333,0 14.1666667,0 C16.005,0 17.5,1.5136875 17.5,3.375 C17.5,5.2363125 16.005,6.75 14.1666667,6.75 L14.1666667,6.75 Z M14.1666667,1.6875 C13.2475,1.6875 12.5,2.44434375 12.5,3.375 C12.5,4.30565625 13.2475,5.0625 14.1666667,5.0625 C15.0858333,5.0625 15.8333333,4.30565625 15.8333333,3.375 C15.8333333,2.44434375 15.0858333,1.6875 14.1666667,1.6875 L14.1666667,1.6875 Z" id="Combined-Shape"></path>
                </g>
            </g>
        </g>
    </g>
</svg>