<?xml version="1.0" encoding="UTF-8"?>
<svg width="27px" height="19px" viewBox="0 0 27 19" version="1.1" xmlns="http://www.w3.org/2000/svg" xmlns:xlink="http://www.w3.org/1999/xlink">
    <!-- Generator: Sketch 41.2 (35397) - http://www.bohemiancoding.com/sketch -->
    <title>Group 25</title>
    <desc>Created with Sketch.</desc>
    <defs></defs>
    <g id="Page-1" stroke="none" stroke-width="1" fill="none" fill-rule="evenodd">
        <g id="Offered-iphone" transform="translate(-138.000000, -357.000000)" fill="#BFBFBF">
            <g id="Group-25" transform="translate(138.000000, 357.000000)">
                <g id="Group-24">
                    <path d="M24.5399516,1.10631818 C25.1596452,1.10631818 25.6639355,1.60636364 25.6639355,2.22084091 L25.6639355,16.5882955 C25.6639355,17.2027727 25.1596452,17.7028182 24.5399516,17.7028182 L2.23925806,17.7028182 C1.61956452,17.7028182 1.11570968,17.2027727 1.11570968,16.5882955 L1.11570968,2.22084091 C1.11570968,1.60636364 1.61956452,1.10631818 2.23925806,1.10631818 L24.5399516,1.10631818 M24.5399516,0 L2.23925806,0 C1.00248387,0 0,0.994477273 0,2.22084091 L0,16.5882955 C0,17.8150909 1.00248387,18.8091364 2.23925806,18.8091364 L24.5399516,18.8091364 C25.7762903,18.8091364 26.7796452,17.8150909 26.7796452,16.5882955 L26.7796452,2.22084091 C26.7796452,0.994477273 25.7762903,0 24.5399516,0" id="Fill-309"></path>
                    <polygon id="Fill-311" points="0.557854839 8.10220455 26.2213548 8.10220455 26.2213548 9.20852273 0.557854839 9.20852273"></polygon>
                    <path d="M16.0393065,12.5279091 L3.64369355,12.5279091 C3.33537097,12.5279091 3.08540323,12.2804773 3.08540323,11.97475 C3.08540323,11.6690227 3.33537097,11.4215909 3.64369355,11.4215909 L16.0393065,11.4215909 C16.347629,11.4215909 16.5975968,11.6690227 16.5975968,11.97475 C16.5975968,12.2804773 16.347629,12.5279091 16.0393065,12.5279091" id="Fill-312"></path>
                    <path d="M9.8415,14.7750909 L3.64369355,14.7750909 C3.33537097,14.7750909 3.08540323,14.5276591 3.08540323,14.2219318 C3.08540323,13.9162045 3.33537097,13.6687727 3.64369355,13.6687727 L9.8415,13.6687727 C10.1498226,13.6687727 10.3993548,13.9162045 10.3993548,14.2219318 C10.3993548,14.5276591 10.1498226,14.7750909 9.8415,14.7750909" id="Fill-313"></path>
                </g>
                <ellipse id="Oval-2" cx="21.6710526" cy="4.57407407" rx="2.48684211" ry="2.46296296"></ellipse>
            </g>
        </g>
    </g>
</svg>