<?xml version="1.0" encoding="UTF-8" standalone="no"?>
<svg width="18px" height="22px" viewBox="0 0 18 22" version="1.1" xmlns="http://www.w3.org/2000/svg" xmlns:xlink="http://www.w3.org/1999/xlink">
    <!-- Generator: Sketch 41 (35326) - http://www.bohemiancoding.com/sketch -->
    <title>Group</title>
    <desc>Created with Sketch.</desc>
    <defs></defs>
    <g id="Page-1" stroke="none" stroke-width="1" fill="none" fill-rule="evenodd">
        <g id="Group" transform="translate(1.000000, 1.000000)" stroke="#CDCDCD" stroke-width="1.5">
            <path d="M16,10 L0,10" id="Shape"></path>
            <path d="M0,3 L16,3" id="Shape"></path>
            <polyline id="Shape" points="5 17 5 20 1 20 1 17"></polyline>
            <polyline id="Shape" points="15 17 15 20 11 20 11 17"></polyline>
            <path d="M16,17 L0,17 L0,2 C0,0.9 0.9,0 2,0 L14,0 C15.1,0 16,0.9 16,2 L16,17 L16,17 Z" id="Shape"></path>
            <path d="M3,13 L5,13" id="Shape"></path>
            <path d="M11,13 L13,13" id="Shape"></path>
        </g>
    </g>
</svg>