<?xml version="1.0" encoding="UTF-8" standalone="no"?>
<svg width="24px" height="24px" viewBox="0 0 24 24" version="1.1" xmlns="http://www.w3.org/2000/svg" xmlns:xlink="http://www.w3.org/1999/xlink">
    <!-- Generator: Sketch 39.1 (31720) - http://www.bohemiancoding.com/sketch -->
    <title>Group</title>
    <desc>Created with Sketch.</desc>
    <defs></defs>
    <g id="Page-1" stroke="none" stroke-width="1" fill="none" fill-rule="evenodd" opacity="0.8">
        <g id="4.1---iPad-Pro-Portrait" transform="translate(-898.000000, -457.000000)" fill="#FFFFFF">
            <g id="Group-7" transform="translate(884.000000, 445.000000)">
                <g id="ui-24px-outline-1_trash-round" transform="translate(14.000000, 12.000000)">
                    <g id="Group">
                        <polygon id="Shape" points="11.25 18 12.75 18 12.75 14 11.25 14"></polygon>
                        <polygon id="Shape" points="7.25 18 8.75 18 8.75 14 7.25 14"></polygon>
                        <polygon id="Shape" points="15.25 18 16.75 18 16.75 14 15.25 14"></polygon>
                        <polygon id="Shape" points="19.25 23 20 22.25 4 22.25 4.75 23 4.75 9 3.25 9 3.25 23 3.25 23.75 4 23.75 20 23.75 20.75 23.75 20.75 23 20.75 9 19.25 9"></polygon>
                        <path d="M5,5.75 L19,5.75 C20.7947864,5.75 22.25,7.20521356 22.25,9 L23,8.25 L1,8.25 L1.75,9 C1.75,7.20521356 3.20521356,5.75 5,5.75 Z M0.25,9.75 L1,9.75 L23,9.75 L23.75,9.75 L23.75,9 C23.75,6.37678644 21.6232136,4.25 19,4.25 L5,4.25 C2.37678644,4.25 0.25,6.37678644 0.25,9 L0.25,9.75 Z" id="Shape"></path>
                        <path d="M12,1.75 C13.7947864,1.75 15.25,3.20521356 15.25,5 L16.75,5 C16.75,2.37678644 14.6232136,0.25 12,0.25 C9.37678644,0.25 7.25,2.37678644 7.25,5 L8.75,5 C8.75,3.20521356 10.2052136,1.75 12,1.75 Z" id="Shape"></path>
                    </g>
                </g>
            </g>
        </g>
    </g>
</svg>