<?xml version="1.0" encoding="UTF-8" standalone="no"?>
<svg width="24px" height="24px" viewBox="0 0 24 24" version="1.1" xmlns="http://www.w3.org/2000/svg" xmlns:xlink="http://www.w3.org/1999/xlink">
    <!-- Generator: Sketch 40.3 (33839) - http://www.bohemiancoding.com/sketch -->
    <title>Shape</title>
    <desc>Created with Sketch.</desc>
    <defs></defs>
    <g id="Page-1" stroke="none" stroke-width="1" fill="none" fill-rule="evenodd">
        <path d="M12,0 C5.4,0 0,5.4 0,12 C0,18.6 5.4,24 12,24 C18.6,24 24,18.6 24,12 C24,5.4 18.6,0 12,0 L12,0 Z M18.7,8.7 L10.7,16.7 C10.5,16.9 10.3,17 10,17 C9.7,17 9.5,16.9 9.3,16.7 L5.3,12.7 C4.9,12.3 4.9,11.7 5.3,11.3 C5.7,10.9 6.3,10.9 6.7,11.3 L10,14.6 L17.3,7.3 C17.7,6.9 18.3,6.9 18.7,7.3 C19.1,7.7 19.1,8.3 18.7,8.7 L18.7,8.7 Z" id="Shape" fill="#BFBFBF"></path>
    </g>
</svg>