<?xml version="1.0" encoding="UTF-8" standalone="no"?>
<svg width="17px" height="17px" viewBox="0 0 17 17" version="1.1" xmlns="http://www.w3.org/2000/svg" xmlns:xlink="http://www.w3.org/1999/xlink">
    <!-- Generator: Sketch 41 (35326) - http://www.bohemiancoding.com/sketch -->
    <title>Shape</title>
    <desc>Created with Sketch.</desc>
    <defs></defs>
    <g id="Page-1" stroke="none" stroke-width="1" fill="none" fill-rule="evenodd">
        <path d="M0.675353773,0.00569265359 C0.396174464,0.0356230163 0.159298229,0.223886866 0.0671192236,0.489103653 C-0.0250597816,0.75432044 0.0439941714,1.04891368 0.244431227,1.24553998 L7.47183393,8.48050272 L0.244431227,15.7079054 C0.0420725253,15.8872519 -0.0438186657,16.1642153 0.0215545694,16.4265901 C0.0869278045,16.6889649 0.292726956,16.8932508 0.555577053,16.9566859 C0.818427151,17.020121 1.09474915,16.9321882 1.2725973,16.7285114 L8.5,9.50110875 L15.7274027,16.7285114 C15.9052509,16.9321882 16.1815728,17.020121 16.4444229,16.9566859 C16.707273,16.8932508 16.9130722,16.6889649 16.9784454,16.4265901 C17.0438187,16.1642153 16.9579275,15.8872519 16.7555688,15.7079054 L9.52816607,8.48050272 L16.7555688,1.24553998 C16.978846,1.02782477 17.0380991,0.691820359 16.9027607,0.410864606 C16.7674222,0.129908852 16.4677445,-0.0331959518 16.1583252,0.00569265359 C15.9938502,0.0273793742 15.8417675,0.104754785 15.7274027,0.224933949 L8.5,7.45233665 L1.2725973,0.224933949 C1.11785577,0.0638491066 0.897564307,-0.0170173811 0.675353773,0.00569265359 L0.675353773,0.00569265359 Z" id="Shape" fill="#777777"></path>
    </g>
</svg>