<?xml version="1.0" encoding="UTF-8" standalone="no"?>
<svg width="26px" height="26px" viewBox="0 0 26 26" version="1.1" xmlns="http://www.w3.org/2000/svg" xmlns:xlink="http://www.w3.org/1999/xlink">
    <!-- Generator: Sketch 40.2 (33826) - http://www.bohemiancoding.com/sketch -->
    <title>Shape</title>
    <desc>Created with Sketch.</desc>
    <defs></defs>
    <g id="Page-1" stroke="none" stroke-width="1" fill="none" fill-rule="evenodd">
        <path d="M0.439339828,23.0274731 C-0.146446609,23.6132596 -0.146446609,24.563007 0.439339828,25.1487935 C1.02512627,25.7345799 1.97487373,25.7345799 2.56066017,25.1487935 L25.1487935,2.56066017 C25.7345799,1.97487373 25.7345799,1.02512627 25.1487935,0.439339828 C24.563007,-0.146446609 23.6132596,-0.146446609 23.0274731,0.439339828 L0.439339828,23.0274731 Z" id="Shape" fill="#FDFCFF"></path>
        <path d="M2.56066017,0.439339828 C1.97487373,-0.146446609 1.02512627,-0.146446609 0.439339828,0.439339828 C-0.146446609,1.02512627 -0.146446609,1.97487373 0.439339828,2.56066017 L23.0274731,25.1487935 C23.6132596,25.7345799 24.563007,25.7345799 25.1487935,25.1487935 C25.7345799,24.563007 25.7345799,23.6132596 25.1487935,23.0274731 L2.56066017,0.439339828 Z" id="Shape" fill="#FDFCFF"></path>
    </g>
</svg>