<?xml version="1.0" encoding="UTF-8" standalone="no"?>
<svg width="54px" height="54px" viewBox="0 0 54 54" version="1.1" xmlns="http://www.w3.org/2000/svg" xmlns:xlink="http://www.w3.org/1999/xlink">
    <!-- Generator: Sketch 40.3 (33839) - http://www.bohemiancoding.com/sketch -->
    <title>Oval</title>
    <desc>Created with Sketch.</desc>
    <defs></defs>
    <g id="Page-1" stroke="none" stroke-width="1" fill="none" fill-rule="evenodd">
        <circle id="Oval" fill="#50E3C2" opacity="0.24" cx="27" cy="27" r="27"></circle>
        <path d="M27.6875,35.5 C28.3125,35.5 28.875,35.75 29.3125,36.1875 C29.75,36.625 30,37.1875 30,37.8125 C30,38.4375 29.75,39 29.3125,39.4375 C28.8125,39.875 28.3125,40.125 27.75,40.125 C27.1875,40.125 26.625,39.875 26.1875,39.4375 C25.6875,39 25.5,38.4375 25.5,37.8125 C25.5,37.1875 25.75,36.625 26.1875,36.1875 C26.5,35.6875 27.0625,35.5 27.6875,35.5 L27.6875,35.5 Z" id="Path" fill="#50E3C2"></path>
        <polygon id="Path" fill="#50E3C2" points="29.3125 32.4375 26.125 32.4375 26.125 13 29.3125 13"></polygon>
    </g>
</svg>