<?xml version="1.0" encoding="UTF-8" standalone="no"?>
<svg width="52px" height="18px" viewBox="0 0 52 18" version="1.1" xmlns="http://www.w3.org/2000/svg" xmlns:xlink="http://www.w3.org/1999/xlink">
    <!-- Generator: Sketch 41.1 (35376) - http://www.bohemiancoding.com/sketch -->
    <title>Visa-Copy</title>
    <desc>Created with Sketch.</desc>
    <defs></defs>
    <g id="Page-1" stroke="none" stroke-width="1" fill="none" fill-rule="evenodd">
        <g id="Visa-Copy">
            <polyline id="Fill-1" fill="#005B9C" points="22.3210056 16.5694652 18.1215517 16.5694652 20.7461565 0 24.9460418 0 22.3210056 16.5694652"></polyline>
            <path d="M14.5779254,0 L10.5739254,11.3961612 L10.1006078,8.94203294 L10.1010392,8.94291939 L8.68755819,1.49233333 C8.68755819,1.49233333 8.51712931,0 6.6954819,0 L0.0772323276,0 L0,0.280117216 C0,0.280117216 2.02443621,0.712703297 4.39231897,2.17489743 L8.04079138,16.5694652 L12.4162832,16.5694652 L19.0975267,0 L14.5779254,0" id="Fill-2" fill="#005B9C"></path>
            <path d="M43.1370595,10.7082784 L45.3440056,4.50713919 L46.5853319,10.7082784 L43.1370595,10.7082784 L43.1370595,10.7082784 L43.1370595,10.7082784 L43.1370595,10.7082784 Z M47.7580552,16.5694652 L51.6140625,16.5694652 L48.2520832,0 L44.8758655,0 C43.3165491,0 42.9372909,1.23482051 42.9372909,1.23482051 L36.674569,16.5694652 L41.0513552,16.5694652 L41.9272302,14.1086886 L47.265753,14.1086886 L47.7580552,16.5694652 L47.7580552,16.5694652 Z" id="Fill-3" fill="#005B9C"></path>
            <path d="M36.9809095,4.28109524 L37.5797836,0.722454212 C37.5797836,0.722454212 35.7305224,0 33.8027345,0 C31.718756,0 26.770278,0.936087916 26.770278,5.48533333 C26.770278,9.76642857 32.5782353,9.81961538 32.5782353,12.0672015 C32.5782353,14.3147875 27.3687207,13.9132271 25.6497621,12.4953553 L25.025,16.2153297 C25.025,16.2153297 26.8997177,17.1514176 29.7655116,17.1514176 C32.6308741,17.1514176 36.9545901,15.6262857 36.9545901,11.4786007 C36.9545901,7.17046886 31.093994,6.76935165 31.093994,4.89628938 C31.093994,3.02322711 35.1838556,3.26389743 36.9809095,4.28109524" id="Fill-4" fill="#005B9C"></path>
            <path d="M10.1010392,8.94291939 L8.68755819,1.49233333 C8.68755819,1.49233333 8.51712931,0 6.6954819,0 L0.0772323276,0 L0,0.280117216 C0,0.280117216 3.18119526,0.95780586 6.23295086,3.49481685 C9.14965776,5.92013553 10.1010392,8.94291939 10.1010392,8.94291939" id="Fill-5" fill="#EF9F3F"></path>
        </g>
    </g>
</svg>