<?xml version="1.0" encoding="UTF-8" standalone="no"?>
<svg width="18px" height="18px" viewBox="0 0 18 18" version="1.1" xmlns="http://www.w3.org/2000/svg" xmlns:xlink="http://www.w3.org/1999/xlink">
    <!-- Generator: Sketch 40.3 (33839) - http://www.bohemiancoding.com/sketch -->
    <title>Shape</title>
    <desc>Created with Sketch.</desc>
    <defs></defs>
    <g id="Page-1" stroke="none" stroke-width="1" fill="none" fill-rule="evenodd">
        <path d="M17.868,17.078 L13.26,12.47 C14.401,11.147 15.094,9.427 15.094,7.547 C15.094,3.385 11.708,0 7.547,0 C3.386,0 0,3.386 0,7.547 C0,11.708 3.386,15.094 7.547,15.094 C9.427,15.094 11.147,14.401 12.47,13.26 L17.078,17.868 C17.187,17.977 17.33,18.032 17.473,18.032 C17.616,18.032 17.759,17.977 17.868,17.868 C18.087,17.65 18.087,17.296 17.868,17.078 L17.868,17.078 Z M7.547,13.976 C4.002,13.976 1.118,11.092 1.118,7.547 C1.118,4.002 4.002,1.118 7.547,1.118 C11.092,1.118 13.976,4.002 13.976,7.547 C13.976,11.092 11.092,13.976 7.547,13.976 L7.547,13.976 Z" id="Shape" fill="#A6A6A6"></path>
    </g>
</svg>