<?xml version="1.0" encoding="utf-8"?>
<!-- Generator: Adobe Illustrator 16.0.0, SVG Export Plug-In . SVG Version: 6.00 Build 0)  -->
<!DOCTYPE svg PUBLIC "-//W3C//DTD SVG 1.1//EN" "http://www.w3.org/Graphics/SVG/1.1/DTD/svg11.dtd">
<svg version="1.1" id="Layer_1" xmlns="http://www.w3.org/2000/svg" xmlns:xlink="http://www.w3.org/1999/xlink" x="0px" y="0px"
	 width="24px" height="24px" viewBox="0 0 24 24" enable-background="new 0 0 24 24" xml:space="preserve">
<title>Shape</title>
<desc>Created with Sketch.</desc>
<g id="Page-1">
	<g id="Profile-Copy-6" transform="translate(-1226.000000, -2515.000000)">
		<g id="Group-4" transform="translate(112.000000, 2484.000000)">
			<g id="Group-5">
				<path id="Shape" fill="#FFFFFF" d="M1115,31c-0.552,0-1,0.448-1,1v22c0,0.553,0.448,1,1,1h12v-9h-3v-4h3v-2.587
					c0-3.1,1.894-4.788,4.658-4.788c1.325,0,2.463,0.099,2.795,0.143v3.24l-1.918,0c-1.504,0-1.795,0.715-1.795,1.764V42h4.44l-1,4
					h-3.44v9h6.26c0.553,0,1-0.447,1-1V32c0-0.552-0.447-1-1-1H1115z"/>
			</g>
		</g>
	</g>
</g>
</svg>
