<?xml version="1.0" encoding="UTF-8" standalone="no"?>
<svg width="78px" height="79px" viewBox="0 0 78 79" version="1.1" xmlns="http://www.w3.org/2000/svg" xmlns:xlink="http://www.w3.org/1999/xlink">
    <!-- Generator: Sketch 40.3 (33839) - http://www.bohemiancoding.com/sketch -->
    <title>Group</title>
    <desc>Created with Sketch.</desc>
    <defs>
        <filter x="-50%" y="-50%" width="200%" height="200%" filterUnits="objectBoundingBox" id="filter-1">
            <feOffset dx="0" dy="2" in="SourceAlpha" result="shadowOffsetOuter1"></feOffset>
            <feGaussianBlur stdDeviation="2" in="shadowOffsetOuter1" result="shadowBlurOuter1"></feGaussianBlur>
            <feColorMatrix values="0 0 0 0 0   0 0 0 0 0   0 0 0 0 0  0 0 0 0 0" type="matrix" in="shadowBlurOuter1" result="shadowMatrixOuter1"></feColorMatrix>
            <feMerge>
                <feMergeNode in="shadowMatrixOuter1"></feMergeNode>
                <feMergeNode in="SourceGraphic"></feMergeNode>
            </feMerge>
        </filter>
    </defs>
    <g id="Page-1" stroke="none" stroke-width="1" fill="none" fill-rule="evenodd">
        <g id="noun_702599_cc" filter="url(#filter-1)" opacity="0.701900653" transform="translate(-11.000000, 0.000000)" fill="#000000">
            <path d="M74,2.6 L50,26.6 L26,2.6 C23.1,-0.3 18.3,-0.3 15.4,2.6 L13.3,4.7 C10.4,7.6 10.4,12.4 13.3,15.3 L37.3,39.3 L13.3,63.3 C10.4,66.2 10.4,71 13.3,73.9 L15.4,76 C18.3,78.9 23.1,78.9 26,76 L50,52 L74,76 C76.9,78.9 81.7,78.9 84.6,76 L86.7,73.9 C89.6,71 89.6,66.2 86.7,63.3 L62.7,39.3 L86.7,15.3 C89.6,12.4 89.6,7.6 86.7,4.7 L84.6,2.6 C81.7,-0.4 76.9,-0.4 74,2.6 L74,2.6 Z" id="Shape"></path>
        </g>
        <g id="Group" transform="translate(-1.000000, 0.000000)"></g>
    </g>
</svg>